<svg width="617" height="51" viewBox="0 0 617 51" fill="none" xmlns="http://www.w3.org/2000/svg">
  <g clip-path="url(#clip0_126_2)">
  <mask id="path-1-outside-1_126_2" maskUnits="userSpaceOnUse" x="0" y="0" width="617" height="51" fill="black">
  <rect fill="white" width="617" height="51"/>
  <path fill-rule="evenodd" clip-rule="evenodd" d="M108.628 48.528C104.361 48.528 100.436 47.5253 96.8515 45.52C93.3102 43.5147 90.4942 40.7413 88.4035 37.2C86.3128 33.6587 85.2675 29.6693 85.2675 25.232C85.2675 20.7947 86.3128 16.8053 88.4035 13.264C90.4942 9.72267 93.3102 6.97067 96.8515 5.008C100.436 3.00267 104.361 2 108.628 2C112.894 2 116.798 3.00267 120.34 5.008C123.881 6.97067 126.675 9.72267 128.724 13.264C130.814 16.8053 131.859 20.7947 131.859 25.232C131.859 29.6693 130.814 33.6587 128.724 37.2C126.675 40.7413 123.86 43.5147 120.276 45.52C116.734 47.5253 112.852 48.528 108.628 48.528ZM108.628 35.28C111.444 35.28 113.62 34.384 115.156 32.592C116.692 30.7573 117.46 28.304 117.46 25.232C117.46 22.1173 116.692 19.664 115.156 17.872C113.62 16.0373 111.444 15.12 108.628 15.12C105.769 15.12 103.572 16.0373 102.035 17.872C100.499 19.664 99.7315 22.1173 99.7315 25.232C99.7315 28.304 100.499 30.7573 102.035 32.592C103.572 34.384 105.769 35.28 108.628 35.28Z"/>
  <path d="M34 14.032V2.768H2V48.08H16.208V14.032H34Z"/>
  <path d="M74.3965 37.328H60.7005V2.768H46.4925V48.08H74.3965V37.328Z"/>
  <path fill-rule="evenodd" clip-rule="evenodd" d="M158.937 31.824L166.326 45.9355C167.016 47.2539 168.382 48.08 169.87 48.08H183.065L173.209 30.736C176.366 29.712 178.777 28.0267 180.441 25.68C182.148 23.3333 183.001 20.6453 183.001 17.616C183.001 14.8 182.34 12.2827 181.017 10.064C179.737 7.80267 177.796 6.032 175.193 4.752C172.59 3.42933 169.454 2.768 165.785 2.768H144.665V42.08C144.665 45.3937 147.351 48.08 150.665 48.08H158.873V31.824H158.937ZM164.505 22.352H161.873C160.216 22.352 158.873 21.0089 158.873 19.352V14.672H164.505C165.828 14.672 166.83 15.0133 167.513 15.696C168.238 16.3787 168.601 17.3173 168.601 18.512C168.601 19.8347 168.26 20.816 167.577 21.456C166.894 22.0533 165.87 22.352 164.505 22.352Z"/>
  <path d="M211.988 2.768V48.08H197.78V2.768H211.988Z"/>
  <path fill-rule="evenodd" clip-rule="evenodd" d="M240.357 48.08L242.597 41.232H257.701L259.941 48.08H274.917L258.405 2.768H242.021L225.445 48.08H240.357ZM250.149 17.936L254.245 30.544H246.053L250.149 17.936Z"/>
  <path d="M329.281 48.08H315.073L300.033 25.296V48.08H285.825V2.768H300.033L315.073 25.936V2.768H329.281V48.08Z"/>
  <path d="M380.208 28.404L393.392 48.052H410.288L393.648 24.436L409.264 2.74001H393.2L380.208 21.812V2.74001H366V48.052H380.208V28.404Z"/>
  <path d="M444.072 48.5C439.806 48.5 435.88 47.4973 432.296 45.492C428.755 43.4867 425.939 40.7133 423.848 37.172C421.758 33.6307 420.712 29.6413 420.712 25.204C420.712 20.7667 421.758 16.7773 423.848 13.236C425.061 11.1829 426.516 9.39513 428.216 7.87265C429.052 7.12413 430.333 7.33584 430.98 8.25235L436.714 16.3759C437.25 17.135 437.171 18.1527 436.692 18.9493C435.576 20.8091 435.176 23.0238 435.176 25.204C435.176 28.276 435.945 30.7293 437.48 32.564C439.016 34.356 441.214 35.252 444.072 35.252C446.888 35.252 449.064 34.356 450.6 32.564C451.18 31.8721 451.65 31.273 452.011 30.4591C452.12 30.2119 452.395 30.0749 452.653 30.1587L464.929 34.1614C465.203 34.2508 465.346 34.553 465.242 34.822C464.921 35.6511 464.662 36.3361 464.168 37.172C462.12 40.7133 459.304 43.4867 455.72 45.492C452.179 47.4973 448.296 48.5 444.072 48.5Z"/>
  <path d="M464.914 32.7797C465.536 32.9786 466.205 32.6452 466.385 32.0178C467.043 29.7148 467.331 27.3122 467.304 24.9168C467.297 24.2613 466.74 23.756 466.085 23.7812L454.096 24.2422C453.428 24.268 452.915 24.8355 452.904 25.5043C452.893 26.2375 452.835 26.9706 452.716 27.6933C452.614 28.321 452.958 28.9536 453.563 29.1474L464.914 32.7797Z"/>
  <path d="M466.801 20.1142C467.038 21.2523 466.152 22.2775 464.99 22.3221L454.516 22.725C453.499 22.7641 452.638 22.0255 452.337 21.0541C452.329 21.0294 452.321 21.0047 452.313 20.9802C452.019 20.0565 452.232 19.0025 452.999 18.4099L461.053 12.1868C461.936 11.5045 463.214 11.6728 463.803 12.6208C465.231 14.9222 466.248 17.4619 466.801 20.1142Z"/>
  <path d="M457.965 12.0453C459.81 10.6197 460.061 7.89043 458.181 6.51152C457.424 5.95651 456.625 5.44601 455.784 4.98C455.068 4.57428 454.337 4.2096 453.591 3.88596C451.489 2.9744 449.262 4.47091 448.87 6.72791L447.647 13.7612C447.463 14.817 448.103 15.8206 448.998 16.4094C449.971 17.0487 451.268 17.22 452.189 16.5086L457.965 12.0453Z"/>
  <path d="M442.044 15.2178C443.636 15.002 445.082 13.917 445.357 12.3339L445.911 9.15088C446.572 5.34657 443.865 1.7012 440.044 2.2634C439.702 2.31379 439.36 2.37071 439.02 2.43414C434.999 3.18378 433.885 7.87434 436.244 11.2157L438.035 13.753C438.907 14.9892 440.544 15.4209 442.044 15.2178Z"/>
  <path d="M509.358 48.052H523.566V2.74001H509.358V25.908L494.318 2.74001H480.11V48.052H494.318V25.268L509.358 48.052Z"/>
  <path d="M553.107 21.1417C553.763 20.9557 554.433 21.4444 554.433 22.1268V47.052H540.225V22.1268C540.225 21.4444 540.895 20.9557 541.551 21.1417C543.046 21.5653 545.505 22.172 547.329 22.172C549.153 22.172 551.612 21.5653 553.107 21.1417Z"/>
  <path d="M596.498 16.18C597.522 16.6493 598.311 17.332 598.866 18.228H613.842C613.159 13.3213 610.941 9.43867 607.186 6.58C603.474 3.72134 598.653 2.292 592.722 2.292C588.071 2.292 584.018 3.27333 580.562 5.236C577.106 7.156 574.439 9.86533 572.562 13.364C570.727 16.8627 569.81 20.852 569.81 25.332C569.81 29.812 570.727 33.8013 572.562 37.3C574.439 40.7987 577.106 43.5293 580.562 45.492C584.061 47.412 588.157 48.372 592.85 48.372C598.141 48.372 602.514 47.1773 605.97 44.788C609.426 42.356 612.135 39.4547 614.098 36.084V21.876H590.994V31.924H602.322C600.317 34.5693 597.671 35.892 594.386 35.892C590.93 35.892 588.37 35.0173 586.706 33.268C585.042 31.5187 584.21 28.8733 584.21 25.332C584.21 22.26 584.957 19.8493 586.45 18.1C587.943 16.308 590.055 15.412 592.786 15.412C594.237 15.412 595.474 15.668 596.498 16.18Z"/>
  <path d="M547.515 2.972C551.381 2.972 554.515 6.10601 554.515 9.972C554.515 13.838 551.381 16.972 547.515 16.972C543.649 16.972 540.515 13.838 540.515 9.972C540.515 6.10601 543.649 2.972 547.515 2.972Z"/>
  </mask>
  <path fill-rule="evenodd" clip-rule="evenodd" d="M108.628 48.528C104.361 48.528 100.436 47.5253 96.8515 45.52C93.3102 43.5147 90.4942 40.7413 88.4035 37.2C86.3128 33.6587 85.2675 29.6693 85.2675 25.232C85.2675 20.7947 86.3128 16.8053 88.4035 13.264C90.4942 9.72267 93.3102 6.97067 96.8515 5.008C100.436 3.00267 104.361 2 108.628 2C112.894 2 116.798 3.00267 120.34 5.008C123.881 6.97067 126.675 9.72267 128.724 13.264C130.814 16.8053 131.859 20.7947 131.859 25.232C131.859 29.6693 130.814 33.6587 128.724 37.2C126.675 40.7413 123.86 43.5147 120.276 45.52C116.734 47.5253 112.852 48.528 108.628 48.528ZM108.628 35.28C111.444 35.28 113.62 34.384 115.156 32.592C116.692 30.7573 117.46 28.304 117.46 25.232C117.46 22.1173 116.692 19.664 115.156 17.872C113.62 16.0373 111.444 15.12 108.628 15.12C105.769 15.12 103.572 16.0373 102.035 17.872C100.499 19.664 99.7315 22.1173 99.7315 25.232C99.7315 28.304 100.499 30.7573 102.035 32.592C103.572 34.384 105.769 35.28 108.628 35.28Z" fill="#000"/>
  <path d="M34 14.032V2.768H2V48.08H16.208V14.032H34Z" fill="#000"/>
  <path d="M74.3965 37.328H60.7005V2.768H46.4925V48.08H74.3965V37.328Z" fill="#000"/>
  <path fill-rule="evenodd" clip-rule="evenodd" d="M158.937 31.824L166.326 45.9355C167.016 47.2539 168.382 48.08 169.87 48.08H183.065L173.209 30.736C176.366 29.712 178.777 28.0267 180.441 25.68C182.148 23.3333 183.001 20.6453 183.001 17.616C183.001 14.8 182.34 12.2827 181.017 10.064C179.737 7.80267 177.796 6.032 175.193 4.752C172.59 3.42933 169.454 2.768 165.785 2.768H144.665V42.08C144.665 45.3937 147.351 48.08 150.665 48.08H158.873V31.824H158.937ZM164.505 22.352H161.873C160.216 22.352 158.873 21.0089 158.873 19.352V14.672H164.505C165.828 14.672 166.83 15.0133 167.513 15.696C168.238 16.3787 168.601 17.3173 168.601 18.512C168.601 19.8347 168.26 20.816 167.577 21.456C166.894 22.0533 165.87 22.352 164.505 22.352Z" fill="#000"/>
  <path d="M211.988 2.768V48.08H197.78V2.768H211.988Z" fill="#000"/>
  <path fill-rule="evenodd" clip-rule="evenodd" d="M240.357 48.08L242.597 41.232H257.701L259.941 48.08H274.917L258.405 2.768H242.021L225.445 48.08H240.357ZM250.149 17.936L254.245 30.544H246.053L250.149 17.936Z" fill="#000"/>
  <path d="M329.281 48.08H315.073L300.033 25.296V48.08H285.825V2.768H300.033L315.073 25.936V2.768H329.281V48.08Z" fill="#000"/>
  <path d="M380.208 28.404L393.392 48.052H410.288L393.648 24.436L409.264 2.74001H393.2L380.208 21.812V2.74001H366V48.052H380.208V28.404Z" fill="#000"/>
  <path d="M444.072 48.5C439.806 48.5 435.88 47.4973 432.296 45.492C428.755 43.4867 425.939 40.7133 423.848 37.172C421.758 33.6307 420.712 29.6413 420.712 25.204C420.712 20.7667 421.758 16.7773 423.848 13.236C425.061 11.1829 426.516 9.39513 428.216 7.87265C429.052 7.12413 430.333 7.33584 430.98 8.25235L436.714 16.3759C437.25 17.135 437.171 18.1527 436.692 18.9493C435.576 20.8091 435.176 23.0238 435.176 25.204C435.176 28.276 435.945 30.7293 437.48 32.564C439.016 34.356 441.214 35.252 444.072 35.252C446.888 35.252 449.064 34.356 450.6 32.564C451.18 31.8721 451.65 31.273 452.011 30.4591C452.12 30.2119 452.395 30.0749 452.653 30.1587L464.929 34.1614C465.203 34.2508 465.346 34.553 465.242 34.822C464.921 35.6511 464.662 36.3361 464.168 37.172C462.12 40.7133 459.304 43.4867 455.72 45.492C452.179 47.4973 448.296 48.5 444.072 48.5Z" fill="#000"/>
  <path d="M464.914 32.7797C465.536 32.9786 466.205 32.6452 466.385 32.0178C467.043 29.7148 467.331 27.3122 467.304 24.9168C467.297 24.2613 466.74 23.756 466.085 23.7812L454.096 24.2422C453.428 24.268 452.915 24.8355 452.904 25.5043C452.893 26.2375 452.835 26.9706 452.716 27.6933C452.614 28.321 452.958 28.9536 453.563 29.1474L464.914 32.7797Z" fill="#000"/>
  <path d="M466.801 20.1142C467.038 21.2523 466.152 22.2775 464.99 22.3221L454.516 22.725C453.499 22.7641 452.638 22.0255 452.337 21.0541C452.329 21.0294 452.321 21.0047 452.313 20.9802C452.019 20.0565 452.232 19.0025 452.999 18.4099L461.053 12.1868C461.936 11.5045 463.214 11.6728 463.803 12.6208C465.231 14.9222 466.248 17.4619 466.801 20.1142Z" fill="#000"/>
  <path d="M457.965 12.0453C459.81 10.6197 460.061 7.89043 458.181 6.51152C457.424 5.95651 456.625 5.44601 455.784 4.98C455.068 4.57428 454.337 4.2096 453.591 3.88596C451.489 2.9744 449.262 4.47091 448.87 6.72791L447.647 13.7612C447.463 14.817 448.103 15.8206 448.998 16.4094C449.971 17.0487 451.268 17.22 452.189 16.5086L457.965 12.0453Z" fill="#000"/>
  <path d="M442.044 15.2178C443.636 15.002 445.082 13.917 445.357 12.3339L445.911 9.15088C446.572 5.34657 443.865 1.7012 440.044 2.2634C439.702 2.31379 439.36 2.37071 439.02 2.43414C434.999 3.18378 433.885 7.87434 436.244 11.2157L438.035 13.753C438.907 14.9892 440.544 15.4209 442.044 15.2178Z" fill="#000"/>
  <path d="M509.358 48.052H523.566V2.74001H509.358V25.908L494.318 2.74001H480.11V48.052H494.318V25.268L509.358 48.052Z" fill="#000"/>
  <path d="M553.107 21.1417C553.763 20.9557 554.433 21.4444 554.433 22.1268V47.052H540.225V22.1268C540.225 21.4444 540.895 20.9557 541.551 21.1417C543.046 21.5653 545.505 22.172 547.329 22.172C549.153 22.172 551.612 21.5653 553.107 21.1417Z" fill="#000"/>
  <path d="M596.498 16.18C597.522 16.6493 598.311 17.332 598.866 18.228H613.842C613.159 13.3213 610.941 9.43867 607.186 6.58C603.474 3.72134 598.653 2.292 592.722 2.292C588.071 2.292 584.018 3.27333 580.562 5.236C577.106 7.156 574.439 9.86533 572.562 13.364C570.727 16.8627 569.81 20.852 569.81 25.332C569.81 29.812 570.727 33.8013 572.562 37.3C574.439 40.7987 577.106 43.5293 580.562 45.492C584.061 47.412 588.157 48.372 592.85 48.372C598.141 48.372 602.514 47.1773 605.97 44.788C609.426 42.356 612.135 39.4547 614.098 36.084V21.876H590.994V31.924H602.322C600.317 34.5693 597.671 35.892 594.386 35.892C590.93 35.892 588.37 35.0173 586.706 33.268C585.042 31.5187 584.21 28.8733 584.21 25.332C584.21 22.26 584.957 19.8493 586.45 18.1C587.943 16.308 590.055 15.412 592.786 15.412C594.237 15.412 595.474 15.668 596.498 16.18Z" fill="#000"/>
  <path d="M547.515 2.972C551.381 2.972 554.515 6.10601 554.515 9.972C554.515 13.838 551.381 16.972 547.515 16.972C543.649 16.972 540.515 13.838 540.515 9.972C540.515 6.10601 543.649 2.972 547.515 2.972Z" fill="#000"/>
  <path fill-rule="evenodd" clip-rule="evenodd" d="M108.628 48.528C104.361 48.528 100.436 47.5253 96.8515 45.52C93.3102 43.5147 90.4942 40.7413 88.4035 37.2C86.3128 33.6587 85.2675 29.6693 85.2675 25.232C85.2675 20.7947 86.3128 16.8053 88.4035 13.264C90.4942 9.72267 93.3102 6.97067 96.8515 5.008C100.436 3.00267 104.361 2 108.628 2C112.894 2 116.798 3.00267 120.34 5.008C123.881 6.97067 126.675 9.72267 128.724 13.264C130.814 16.8053 131.859 20.7947 131.859 25.232C131.859 29.6693 130.814 33.6587 128.724 37.2C126.675 40.7413 123.86 43.5147 120.276 45.52C116.734 47.5253 112.852 48.528 108.628 48.528ZM108.628 35.28C111.444 35.28 113.62 34.384 115.156 32.592C116.692 30.7573 117.46 28.304 117.46 25.232C117.46 22.1173 116.692 19.664 115.156 17.872C113.62 16.0373 111.444 15.12 108.628 15.12C105.769 15.12 103.572 16.0373 102.035 17.872C100.499 19.664 99.7315 22.1173 99.7315 25.232C99.7315 28.304 100.499 30.7573 102.035 32.592C103.572 34.384 105.769 35.28 108.628 35.28Z" stroke="#fff" stroke-width="4" mask="url(#path-1-outside-1_126_2)"/>
  <path d="M34 14.032V2.768H2V48.08H16.208V14.032H34Z" stroke="#fff" stroke-width="4" mask="url(#path-1-outside-1_126_2)"/>
  <path d="M74.3965 37.328H60.7005V2.768H46.4925V48.08H74.3965V37.328Z" stroke="#fff" stroke-width="4" mask="url(#path-1-outside-1_126_2)"/>
  <path fill-rule="evenodd" clip-rule="evenodd" d="M158.937 31.824L166.326 45.9355C167.016 47.2539 168.382 48.08 169.87 48.08H183.065L173.209 30.736C176.366 29.712 178.777 28.0267 180.441 25.68C182.148 23.3333 183.001 20.6453 183.001 17.616C183.001 14.8 182.34 12.2827 181.017 10.064C179.737 7.80267 177.796 6.032 175.193 4.752C172.59 3.42933 169.454 2.768 165.785 2.768H144.665V42.08C144.665 45.3937 147.351 48.08 150.665 48.08H158.873V31.824H158.937ZM164.505 22.352H161.873C160.216 22.352 158.873 21.0089 158.873 19.352V14.672H164.505C165.828 14.672 166.83 15.0133 167.513 15.696C168.238 16.3787 168.601 17.3173 168.601 18.512C168.601 19.8347 168.26 20.816 167.577 21.456C166.894 22.0533 165.87 22.352 164.505 22.352Z" stroke="#fff" stroke-width="4" mask="url(#path-1-outside-1_126_2)"/>
  <path d="M211.988 2.768V48.08H197.78V2.768H211.988Z" stroke="#fff" stroke-width="4" mask="url(#path-1-outside-1_126_2)"/>
  <path fill-rule="evenodd" clip-rule="evenodd" d="M240.357 48.08L242.597 41.232H257.701L259.941 48.08H274.917L258.405 2.768H242.021L225.445 48.08H240.357ZM250.149 17.936L254.245 30.544H246.053L250.149 17.936Z" stroke="#fff" stroke-width="4" mask="url(#path-1-outside-1_126_2)"/>
  <path d="M329.281 48.08H315.073L300.033 25.296V48.08H285.825V2.768H300.033L315.073 25.936V2.768H329.281V48.08Z" stroke="#fff" stroke-width="4" mask="url(#path-1-outside-1_126_2)"/>
  <path d="M380.208 28.404L393.392 48.052H410.288L393.648 24.436L409.264 2.74001H393.2L380.208 21.812V2.74001H366V48.052H380.208V28.404Z" stroke="#fff" stroke-width="4" mask="url(#path-1-outside-1_126_2)"/>
  <path d="M444.072 48.5C439.806 48.5 435.88 47.4973 432.296 45.492C428.755 43.4867 425.939 40.7133 423.848 37.172C421.758 33.6307 420.712 29.6413 420.712 25.204C420.712 20.7667 421.758 16.7773 423.848 13.236C425.061 11.1829 426.516 9.39513 428.216 7.87265C429.052 7.12413 430.333 7.33584 430.98 8.25235L436.714 16.3759C437.25 17.135 437.171 18.1527 436.692 18.9493C435.576 20.8091 435.176 23.0238 435.176 25.204C435.176 28.276 435.945 30.7293 437.48 32.564C439.016 34.356 441.214 35.252 444.072 35.252C446.888 35.252 449.064 34.356 450.6 32.564C451.18 31.8721 451.65 31.273 452.011 30.4591C452.12 30.2119 452.395 30.0749 452.653 30.1587L464.929 34.1614C465.203 34.2508 465.346 34.553 465.242 34.822C464.921 35.6511 464.662 36.3361 464.168 37.172C462.12 40.7133 459.304 43.4867 455.72 45.492C452.179 47.4973 448.296 48.5 444.072 48.5Z" stroke="#fff" stroke-width="4" mask="url(#path-1-outside-1_126_2)"/>
  <path d="M464.914 32.7797C465.536 32.9786 466.205 32.6452 466.385 32.0178C467.043 29.7148 467.331 27.3122 467.304 24.9168C467.297 24.2613 466.74 23.756 466.085 23.7812L454.096 24.2422C453.428 24.268 452.915 24.8355 452.904 25.5043C452.893 26.2375 452.835 26.9706 452.716 27.6933C452.614 28.321 452.958 28.9536 453.563 29.1474L464.914 32.7797Z" stroke="#fff" stroke-width="4" mask="url(#path-1-outside-1_126_2)"/>
  <path d="M466.801 20.1142C467.038 21.2523 466.152 22.2775 464.99 22.3221L454.516 22.725C453.499 22.7641 452.638 22.0255 452.337 21.0541C452.329 21.0294 452.321 21.0047 452.313 20.9802C452.019 20.0565 452.232 19.0025 452.999 18.4099L461.053 12.1868C461.936 11.5045 463.214 11.6728 463.803 12.6208C465.231 14.9222 466.248 17.4619 466.801 20.1142Z" stroke="#fff" stroke-width="4" mask="url(#path-1-outside-1_126_2)"/>
  <path d="M457.965 12.0453C459.81 10.6197 460.061 7.89043 458.181 6.51152C457.424 5.95651 456.625 5.44601 455.784 4.98C455.068 4.57428 454.337 4.2096 453.591 3.88596C451.489 2.9744 449.262 4.47091 448.87 6.72791L447.647 13.7612C447.463 14.817 448.103 15.8206 448.998 16.4094C449.971 17.0487 451.268 17.22 452.189 16.5086L457.965 12.0453Z" stroke="#fff" stroke-width="4" mask="url(#path-1-outside-1_126_2)"/>
  <path d="M442.044 15.2178C443.636 15.002 445.082 13.917 445.357 12.3339L445.911 9.15088C446.572 5.34657 443.865 1.7012 440.044 2.2634C439.702 2.31379 439.36 2.37071 439.02 2.43414C434.999 3.18378 433.885 7.87434 436.244 11.2157L438.035 13.753C438.907 14.9892 440.544 15.4209 442.044 15.2178Z" stroke="#fff" stroke-width="4" mask="url(#path-1-outside-1_126_2)"/>
  <path d="M509.358 48.052H523.566V2.74001H509.358V25.908L494.318 2.74001H480.11V48.052H494.318V25.268L509.358 48.052Z" stroke="#fff" stroke-width="4" mask="url(#path-1-outside-1_126_2)"/>
  <path d="M553.107 21.1417C553.763 20.9557 554.433 21.4444 554.433 22.1268V47.052H540.225V22.1268C540.225 21.4444 540.895 20.9557 541.551 21.1417C543.046 21.5653 545.505 22.172 547.329 22.172C549.153 22.172 551.612 21.5653 553.107 21.1417Z" stroke="#fff" stroke-width="4" mask="url(#path-1-outside-1_126_2)"/>
  <path d="M596.498 16.18C597.522 16.6493 598.311 17.332 598.866 18.228H613.842C613.159 13.3213 610.941 9.43867 607.186 6.58C603.474 3.72134 598.653 2.292 592.722 2.292C588.071 2.292 584.018 3.27333 580.562 5.236C577.106 7.156 574.439 9.86533 572.562 13.364C570.727 16.8627 569.81 20.852 569.81 25.332C569.81 29.812 570.727 33.8013 572.562 37.3C574.439 40.7987 577.106 43.5293 580.562 45.492C584.061 47.412 588.157 48.372 592.85 48.372C598.141 48.372 602.514 47.1773 605.97 44.788C609.426 42.356 612.135 39.4547 614.098 36.084V21.876H590.994V31.924H602.322C600.317 34.5693 597.671 35.892 594.386 35.892C590.93 35.892 588.37 35.0173 586.706 33.268C585.042 31.5187 584.21 28.8733 584.21 25.332C584.21 22.26 584.957 19.8493 586.45 18.1C587.943 16.308 590.055 15.412 592.786 15.412C594.237 15.412 595.474 15.668 596.498 16.18Z" stroke="#fff" stroke-width="4" mask="url(#path-1-outside-1_126_2)"/>
  <path d="M547.515 2.972C551.381 2.972 554.515 6.10601 554.515 9.972C554.515 13.838 551.381 16.972 547.515 16.972C543.649 16.972 540.515 13.838 540.515 9.972C540.515 6.10601 543.649 2.972 547.515 2.972Z" stroke="#fff" stroke-width="4" mask="url(#path-1-outside-1_126_2)"/>
  <path d="M11.5 31H23.5C26.5376 31 29 28.5376 29 25.5C29 22.4624 26.5376 20 23.5 20H11.5C8.46243 20 6 22.4624 6 25.5C6 28.5376 8.46243 31 11.5 31Z" fill="#000"/>
  <path d="M243.749 40.9218L243.325 42.23H244.7H259.66C263.161 42.23 266 39.3915 266 35.89C266 32.3885 263.161 29.55 259.66 29.55L248.16 29.55L247.433 29.55L247.209 30.2418L243.749 40.9218ZM11.5 32H23.5C27.0899 32 30 29.0899 30 25.5C30 21.9101 27.0899 19 23.5 19H11.5C7.91015 19 5 21.9101 5 25.5C5 29.0899 7.91015 32 11.5 32Z" stroke="#fff" stroke-width="2"/>
  <path d="M247.5 30L250 22L253 30H247.5Z" fill="#fff"/>
  <path d="M10 25.5C10 24.6716 10.6716 24 11.5 24C12.3284 24 13 24.6716 13 25.5C13 26.3284 12.3284 27 11.5 27C10.6716 27 10 26.3284 10 25.5Z" fill="#fff"/>
  <path d="M257 35.9C257 35.0716 257.672 34.4 258.5 34.4C259.328 34.4 260 35.0716 260 35.9C260 36.7285 259.328 37.4 258.5 37.4C257.672 37.4 257 36.7285 257 35.9Z" fill="#fff"/>
  </g>
  <defs>
  <clipPath id="clip0_126_2">
  <rect width="617" height="51" fill="white"/>
  </clipPath>
  </defs>
  </svg>