<svg width="339" height="132" viewBox="0 0 339 132" fill="none" xmlns="http://www.w3.org/2000/svg">
<g clip-path="url(#clip0_1_69)" filter="url(#filter0_d_1_69)">
<path d="M36.5 9.688V20.952H18.708V27.224H31.508V37.912H18.708V55H4.49999V9.688H36.5ZM63.2005 44.248H76.8965V55H48.9925V9.688H63.2005V44.248ZM111.127 55.448C106.861 55.448 102.935 54.4453 99.3515 52.44C95.8102 50.4347 92.9942 47.6613 90.9035 44.12C88.8128 40.5787 87.7675 36.5893 87.7675 32.152C87.7675 27.7147 88.8128 23.7253 90.9035 20.184C92.9942 16.6427 95.8102 13.8907 99.3515 11.928C102.935 9.92266 106.861 8.92 111.127 8.92C115.394 8.92 119.298 9.92266 122.839 11.928C126.381 13.8907 129.175 16.6427 131.223 20.184C133.314 23.7253 134.359 27.7147 134.359 32.152C134.359 36.5893 133.314 40.5787 131.223 44.12C129.175 47.6613 126.359 50.4347 122.775 52.44C119.234 54.4453 115.351 55.448 111.127 55.448ZM111.127 42.2C113.943 42.2 116.119 41.304 117.655 39.512C119.191 37.6773 119.959 35.224 119.959 32.152C119.959 29.0373 119.191 26.584 117.655 24.792C116.119 22.9573 113.943 22.04 111.127 22.04C108.269 22.04 106.071 22.9573 104.535 24.792C102.999 26.584 102.231 29.0373 102.231 32.152C102.231 35.224 102.999 37.6773 104.535 39.512C106.071 41.304 108.269 42.2 111.127 42.2ZM169.949 55L161.437 38.744H161.373V55H147.165V9.688H168.285C171.954 9.688 175.09 10.3493 177.693 11.672C180.296 12.952 182.237 14.7227 183.517 16.984C184.84 19.2027 185.501 21.72 185.501 24.536C185.501 27.5653 184.648 30.2533 182.941 32.6C181.277 34.9467 178.866 36.632 175.709 37.656L185.565 55H169.949ZM161.373 29.272H167.005C168.37 29.272 169.394 28.9733 170.077 28.376C170.76 27.736 171.101 26.7547 171.101 25.432C171.101 24.2373 170.738 23.2987 170.013 22.616C169.33 21.9333 168.328 21.592 167.005 21.592H161.373V29.272ZM214.488 9.688V55H200.28V9.688H214.488ZM260.201 48.152H245.097L242.857 55H227.945L244.521 9.688H260.905L277.417 55H262.441L260.201 48.152ZM256.745 37.464L252.649 24.856L248.553 37.464H256.745ZM331.781 55H317.573L302.533 32.216V55H288.325V9.688H302.533L317.573 32.856V9.688H331.781V55ZM112.377 121L99.193 101.352V121H84.985V75.688H99.193V94.76L112.185 75.688H128.249L112.633 97.384L129.273 121H112.377ZM163.057 121.448C158.791 121.448 154.865 120.445 151.281 118.44C147.74 116.435 144.924 113.661 142.833 110.12C140.743 106.579 139.697 102.589 139.697 98.152C139.697 93.7147 140.743 89.7253 142.833 86.184C144.924 82.6427 147.74 79.8907 151.281 77.928C154.865 75.9227 158.791 74.92 163.057 74.92C167.324 74.92 171.228 75.9227 174.769 77.928C178.311 79.8907 181.105 82.6427 183.153 86.184C185.244 89.7253 186.289 93.7147 186.289 98.152C186.289 102.589 185.244 106.579 183.153 110.12C181.105 113.661 178.289 116.435 174.705 118.44C171.164 120.445 167.281 121.448 163.057 121.448ZM163.057 108.2C165.873 108.2 168.049 107.304 169.585 105.512C171.121 103.677 171.889 101.224 171.889 98.152C171.889 95.0373 171.121 92.584 169.585 90.792C168.049 88.9573 165.873 88.04 163.057 88.04C160.199 88.04 158.001 88.9573 156.465 90.792C154.929 92.584 154.161 95.0373 154.161 98.152C154.161 101.224 154.929 103.677 156.465 105.512C158.001 107.304 160.199 108.2 163.057 108.2ZM242.551 121H228.343L213.303 98.216V121H199.095V75.688H213.303L228.343 98.856V75.688H242.551V121ZM273.418 75.688V121H259.21V75.688H273.418ZM317.851 91.176C317.296 90.28 316.507 89.5973 315.483 89.128C314.459 88.616 313.222 88.36 311.771 88.36C309.04 88.36 306.928 89.256 305.435 91.048C303.942 92.7973 303.195 95.208 303.195 98.28C303.195 101.821 304.027 104.467 305.691 106.216C307.355 107.965 309.915 108.84 313.371 108.84C316.656 108.84 319.302 107.517 321.307 104.872H309.979V94.824H333.083V109.032C331.12 112.403 328.411 115.304 324.955 117.736C321.499 120.125 317.126 121.32 311.835 121.32C307.142 121.32 303.046 120.36 299.547 118.44C296.091 116.477 293.424 113.747 291.547 110.248C289.712 106.749 288.795 102.76 288.795 98.28C288.795 93.8 289.712 89.8107 291.547 86.312C293.424 82.8133 296.091 80.104 299.547 78.184C303.003 76.2213 307.056 75.24 311.707 75.24C317.638 75.24 322.459 76.6693 326.171 79.528C329.926 82.3867 332.144 86.2693 332.827 91.176H317.851Z" fill="#131218"/>
<path d="M36.5 9.688H40.5V5.688H36.5V9.688ZM36.5 20.952V24.952H40.5V20.952H36.5ZM18.708 20.952V16.952H14.708V20.952H18.708ZM18.708 27.224H14.708V31.224H18.708V27.224ZM31.508 27.224H35.508V23.224H31.508V27.224ZM31.508 37.912V41.912H35.508V37.912H31.508ZM18.708 37.912V33.912H14.708V37.912H18.708ZM18.708 55V59H22.708V55H18.708ZM4.49999 55H0.499988V59H4.49999V55ZM4.49999 9.688V5.688H0.499988V9.688H4.49999ZM32.5 9.688V20.952H40.5V9.688H32.5ZM36.5 16.952H18.708V24.952H36.5V16.952ZM14.708 20.952V27.224H22.708V20.952H14.708ZM18.708 31.224H31.508V23.224H18.708V31.224ZM27.508 27.224V37.912H35.508V27.224H27.508ZM31.508 33.912H18.708V41.912H31.508V33.912ZM14.708 37.912V55H22.708V37.912H14.708ZM18.708 51H4.49999V59H18.708V51ZM8.49999 55V9.688H0.499988V55H8.49999ZM4.49999 13.688H36.5V5.688H4.49999V13.688ZM63.2005 44.248H59.2005V48.248H63.2005V44.248ZM76.8965 44.248H80.8965V40.248H76.8965V44.248ZM76.8965 55V59H80.8965V55H76.8965ZM48.9925 55H44.9925V59H48.9925V55ZM48.9925 9.688V5.688H44.9925V9.688H48.9925ZM63.2005 9.688H67.2005V5.688H63.2005V9.688ZM63.2005 48.248H76.8965V40.248H63.2005V48.248ZM72.8965 44.248V55H80.8965V44.248H72.8965ZM76.8965 51H48.9925V59H76.8965V51ZM52.9925 55V9.688H44.9925V55H52.9925ZM48.9925 13.688H63.2005V5.688H48.9925V13.688ZM59.2005 9.688V44.248H67.2005V9.688H59.2005ZM99.3515 52.44L97.3805 55.9207L97.3894 55.9257L97.3983 55.9307L99.3515 52.44ZM90.9035 44.12L87.459 46.1535L87.459 46.1535L90.9035 44.12ZM99.3515 11.928L101.29 15.4266L101.298 15.4227L101.305 15.4187L99.3515 11.928ZM122.839 11.928L120.868 15.4087L120.884 15.4177L120.9 15.4266L122.839 11.928ZM131.223 20.184L127.761 22.1865L127.77 22.202L127.779 22.2175L131.223 20.184ZM131.223 44.12L127.779 42.0865L127.77 42.1019L127.761 42.1175L131.223 44.12ZM122.775 52.44L120.822 48.9493L120.813 48.9543L120.804 48.9593L122.775 52.44ZM117.655 39.512L120.693 42.1152L120.708 42.0975L120.723 42.0797L117.655 39.512ZM117.655 24.792L114.588 27.3597L114.603 27.3775L114.618 27.3952L117.655 24.792ZM104.535 24.792L107.573 27.3952L107.588 27.3775L107.603 27.3597L104.535 24.792ZM104.535 39.512L101.468 42.0797L101.483 42.0975L101.498 42.1152L104.535 39.512ZM111.127 51.448C107.517 51.448 104.268 50.6074 101.305 48.9493L97.3983 55.9307C101.603 58.2833 106.205 59.448 111.127 59.448V51.448ZM101.322 48.9593C98.3972 47.3028 96.0866 45.0314 94.348 42.0865L87.459 46.1535C89.9017 50.2913 93.2231 53.5665 97.3805 55.9207L101.322 48.9593ZM94.348 42.0865C92.6496 39.2096 91.7675 35.9325 91.7675 32.152H83.7675C83.7675 37.2462 84.976 41.9477 87.459 46.1535L94.348 42.0865ZM91.7675 32.152C91.7675 28.3715 92.6496 25.0944 94.348 22.2175L87.459 18.1505C84.976 22.3563 83.7675 27.0578 83.7675 32.152H91.7675ZM94.348 22.2175C96.0823 19.2798 98.3828 17.0381 101.29 15.4266L97.4125 8.42938C93.2375 10.7432 89.906 14.0055 87.459 18.1505L94.348 22.2175ZM101.305 15.4187C104.268 13.7606 107.517 12.92 111.127 12.92V4.92C106.205 4.92 101.603 6.08474 97.3983 8.43726L101.305 15.4187ZM111.127 12.92C114.738 12.92 117.958 13.7605 120.868 15.4087L124.81 8.44731C120.638 6.08486 116.05 4.92 111.127 4.92V12.92ZM120.9 15.4266C123.801 17.034 126.072 19.2659 127.761 22.1865L134.686 18.1815C132.279 14.0195 128.961 10.7473 124.778 8.42938L120.9 15.4266ZM127.779 22.2175C129.477 25.0944 130.359 28.3715 130.359 32.152H138.359C138.359 27.0578 137.151 22.3563 134.668 18.1505L127.779 22.2175ZM130.359 32.152C130.359 35.9325 129.477 39.2096 127.779 42.0865L134.668 46.1535C137.151 41.9477 138.359 37.2462 138.359 32.152H130.359ZM127.761 42.1175C126.074 45.0335 123.781 47.2938 120.822 48.9493L124.729 55.9307C128.938 53.5755 132.276 50.2892 134.686 46.1225L127.761 42.1175ZM120.804 48.9593C117.888 50.611 114.688 51.448 111.127 51.448V59.448C116.015 59.448 120.581 58.2796 124.746 55.9207L120.804 48.9593ZM111.127 46.2C114.863 46.2 118.249 44.9662 120.693 42.1152L114.618 36.9088C113.99 37.6418 113.024 38.2 111.127 38.2V46.2ZM120.723 42.0797C123.015 39.3411 123.959 35.891 123.959 32.152H115.959C115.959 34.557 115.368 36.0136 114.588 36.9443L120.723 42.0797ZM123.959 32.152C123.959 28.3919 123.025 24.9105 120.693 22.1888L114.618 27.3952C115.358 28.2575 115.959 29.6827 115.959 32.152H123.959ZM120.723 22.2243C118.289 19.3176 114.895 18.04 111.127 18.04V26.04C112.992 26.04 113.95 26.597 114.588 27.3597L120.723 22.2243ZM111.127 18.04C107.339 18.04 103.914 19.3033 101.468 22.2243L107.603 27.3597C108.229 26.6114 109.198 26.04 111.127 26.04V18.04ZM101.498 22.1888C99.1656 24.9105 98.2315 28.3919 98.2315 32.152H106.231C106.231 29.6827 106.833 28.2575 107.573 27.3952L101.498 22.1888ZM98.2315 32.152C98.2315 35.891 99.1756 39.3411 101.468 42.0797L107.603 36.9443C106.823 36.0136 106.231 34.557 106.231 32.152H98.2315ZM101.498 42.1152C103.954 44.98 107.371 46.2 111.127 46.2V38.2C109.167 38.2 108.189 37.628 107.573 36.9088L101.498 42.1152ZM169.949 55L166.405 56.8555L167.528 59H169.949V55ZM161.437 38.744L164.981 36.8885L163.858 34.744H161.437V38.744ZM161.373 38.744V34.744H157.373V38.744H161.373ZM161.373 55V59H165.373V55H161.373ZM147.165 55H143.165V59H147.165V55ZM147.165 9.688V5.688H143.165V9.688H147.165ZM177.693 11.672L175.881 15.2379L175.904 15.2498L175.928 15.2614L177.693 11.672ZM183.517 16.984L180.036 18.9544L180.058 18.9936L180.081 19.0323L183.517 16.984ZM182.941 32.6L179.706 30.2473L179.692 30.2667L179.678 30.2863L182.941 32.6ZM175.709 37.656L174.475 33.8511L169.806 35.3652L172.231 39.6323L175.709 37.656ZM185.565 55V59H192.439L189.043 53.0237L185.565 55ZM161.373 29.272H157.373V33.272H161.373V29.272ZM170.077 28.376L172.711 31.3863L172.763 31.3411L172.813 31.2941L170.077 28.376ZM170.013 22.616L167.185 25.4444L167.227 25.4873L167.272 25.5288L170.013 22.616ZM161.373 21.592V17.592H157.373V21.592H161.373ZM173.493 53.1445L164.981 36.8885L157.893 40.5995L166.405 56.8555L173.493 53.1445ZM161.437 34.744H161.373V42.744H161.437V34.744ZM157.373 38.744V55H165.373V38.744H157.373ZM161.373 51H147.165V59H161.373V51ZM151.165 55V9.688H143.165V55H151.165ZM147.165 13.688H168.285V5.688H147.165V13.688ZM168.285 13.688C171.482 13.688 173.965 14.2645 175.881 15.2379L179.505 8.10606C176.215 6.4342 172.426 5.688 168.285 5.688V13.688ZM175.928 15.2614C177.896 16.2294 179.197 17.473 180.036 18.9544L186.998 15.0136C185.277 11.9724 182.695 9.67464 179.458 8.0826L175.928 15.2614ZM180.081 19.0323C181.002 20.5762 181.501 22.374 181.501 24.536H189.501C189.501 21.066 188.678 17.8291 186.953 14.9357L180.081 19.0323ZM181.501 24.536C181.501 26.7596 180.893 28.6157 179.706 30.2473L186.176 34.9527C188.403 31.8909 189.501 28.371 189.501 24.536H181.501ZM179.678 30.2863C178.586 31.8258 176.944 33.0503 174.475 33.8511L176.943 41.4609C180.788 40.2137 183.968 38.0675 186.204 34.9137L179.678 30.2863ZM172.231 39.6323L182.087 56.9763L189.043 53.0237L179.187 35.6797L172.231 39.6323ZM185.565 51H169.949V59H185.565V51ZM161.373 33.272H167.005V25.272H161.373V33.272ZM167.005 33.272C168.865 33.272 171.008 32.8766 172.711 31.3863L167.443 25.3657C167.61 25.2192 167.727 25.1933 167.677 25.208C167.614 25.2264 167.409 25.272 167.005 25.272V33.272ZM172.813 31.2941C174.589 29.6289 175.101 27.3933 175.101 25.432H167.101C167.101 25.5923 167.091 25.7039 167.08 25.7738C167.07 25.8433 167.061 25.8634 167.067 25.8459C167.074 25.8269 167.095 25.7718 167.143 25.696C167.192 25.6187 167.258 25.5358 167.341 25.4579L172.813 31.2941ZM175.101 25.432C175.101 23.3721 174.441 21.2906 172.754 19.7032L167.272 25.5288C167.239 25.4981 167.202 25.4562 167.168 25.4049C167.133 25.3537 167.111 25.3072 167.098 25.2736C167.072 25.2058 167.101 25.2374 167.101 25.432H175.101ZM172.841 19.7876C171.166 18.1119 168.987 17.592 167.005 17.592V25.592C167.332 25.592 167.462 25.6354 167.46 25.6346C167.456 25.6331 167.419 25.6202 167.364 25.5865C167.307 25.5521 167.245 25.5045 167.185 25.4444L172.841 19.7876ZM167.005 17.592H161.373V25.592H167.005V17.592ZM157.373 21.592V29.272H165.373V21.592H157.373ZM214.488 9.688H218.488V5.688H214.488V9.688ZM214.488 55V59H218.488V55H214.488ZM200.28 55H196.28V59H200.28V55ZM200.28 9.688V5.688H196.28V9.688H200.28ZM210.488 9.688V55H218.488V9.688H210.488ZM214.488 51H200.28V59H214.488V51ZM204.28 55V9.688H196.28V55H204.28ZM200.28 13.688H214.488V5.688H200.28V13.688ZM260.201 48.152L264.003 46.9084L263.101 44.152H260.201V48.152ZM245.097 48.152V44.152H242.197L241.295 46.9084L245.097 48.152ZM242.857 55V59H245.757L246.659 56.2436L242.857 55ZM227.945 55L224.188 53.6258L222.222 59H227.945V55ZM244.521 9.688V5.688H241.725L240.764 8.31379L244.521 9.688ZM260.905 9.688L264.663 8.31847L263.705 5.688H260.905V9.688ZM277.417 55V59H283.132L281.175 53.6305L277.417 55ZM262.441 55L258.639 56.2436L259.541 59H262.441V55ZM256.745 37.464V41.464H262.25L260.549 36.2281L256.745 37.464ZM252.649 24.856L256.453 23.6201L252.649 11.91L248.845 23.6201L252.649 24.856ZM248.553 37.464L244.749 36.2281L243.048 41.464H248.553V37.464ZM260.201 44.152H245.097V52.152H260.201V44.152ZM241.295 46.9084L239.055 53.7564L246.659 56.2436L248.899 49.3956L241.295 46.9084ZM242.857 51H227.945V59H242.857V51ZM231.702 56.3742L248.278 11.0622L240.764 8.31379L224.188 53.6258L231.702 56.3742ZM244.521 13.688H260.905V5.688H244.521V13.688ZM257.147 11.0575L273.659 56.3695L281.175 53.6305L264.663 8.31847L257.147 11.0575ZM277.417 51H262.441V59H277.417V51ZM266.243 53.7564L264.003 46.9084L256.399 49.3956L258.639 56.2436L266.243 53.7564ZM260.549 36.2281L256.453 23.6201L248.845 26.0919L252.941 38.6999L260.549 36.2281ZM248.845 23.6201L244.749 36.2281L252.357 38.6999L256.453 26.0919L248.845 23.6201ZM248.553 41.464H256.745V33.464H248.553V41.464ZM331.781 55V59H335.781V55H331.781ZM317.573 55L314.235 57.2036L315.421 59H317.573V55ZM302.533 32.216L305.871 30.0124L298.533 18.8957V32.216H302.533ZM302.533 55V59H306.533V55H302.533ZM288.325 55H284.325V59H288.325V55ZM288.325 9.688V5.688H284.325V9.688H288.325ZM302.533 9.688L305.888 7.51L304.705 5.688H302.533V9.688ZM317.573 32.856L314.218 35.034L321.573 46.3639V32.856H317.573ZM317.573 9.688V5.688H313.573V9.688H317.573ZM331.781 9.688H335.781V5.688H331.781V9.688ZM331.781 51H317.573V59H331.781V51ZM320.911 52.7964L305.871 30.0124L299.195 34.4196L314.235 57.2036L320.911 52.7964ZM298.533 32.216V55H306.533V32.216H298.533ZM302.533 51H288.325V59H302.533V51ZM292.325 55V9.688H284.325V55H292.325ZM288.325 13.688H302.533V5.688H288.325V13.688ZM299.178 11.866L314.218 35.034L320.928 30.678L305.888 7.51L299.178 11.866ZM321.573 32.856V9.688H313.573V32.856H321.573ZM317.573 13.688H331.781V5.688H317.573V13.688ZM327.781 9.688V55H335.781V9.688H327.781ZM112.377 121L109.055 123.229L110.244 125H112.377V121ZM99.193 101.352L102.515 99.1232L95.193 88.212V101.352H99.193ZM99.193 121V125H103.193V121H99.193ZM84.985 121H80.985V125H84.985V121ZM84.985 75.688V71.688H80.985V75.688H84.985ZM99.193 75.688H103.193V71.688H99.193V75.688ZM99.193 94.76H95.193V107.737L102.499 97.012L99.193 94.76ZM112.185 75.688V71.688H110.07L108.879 73.436L112.185 75.688ZM128.249 75.688L131.496 78.0247L136.056 71.688H128.249V75.688ZM112.633 97.384L109.387 95.0473L107.722 97.3593L109.363 99.6879L112.633 97.384ZM129.273 121V125H136.985L132.543 118.696L129.273 121ZM115.699 118.771L102.515 99.1232L95.8715 103.581L109.055 123.229L115.699 118.771ZM95.193 101.352V121H103.193V101.352H95.193ZM99.193 117H84.985V125H99.193V117ZM88.985 121V75.688H80.985V121H88.985ZM84.985 79.688H99.193V71.688H84.985V79.688ZM95.193 75.688V94.76H103.193V75.688H95.193ZM102.499 97.012L115.491 77.94L108.879 73.436L95.8872 92.508L102.499 97.012ZM112.185 79.688H128.249V71.688H112.185V79.688ZM125.003 73.3513L109.387 95.0473L115.88 99.7207L131.496 78.0247L125.003 73.3513ZM109.363 99.6879L126.003 123.304L132.543 118.696L115.903 95.0801L109.363 99.6879ZM129.273 117H112.377V125H129.273V117ZM151.281 118.44L149.311 121.921L149.319 121.926L149.328 121.931L151.281 118.44ZM142.833 110.12L139.389 112.154L139.389 112.154L142.833 110.12ZM151.281 77.928L153.22 81.4266L153.228 81.4227L153.235 81.4187L151.281 77.928ZM174.769 77.928L172.799 81.4087L172.814 81.4177L172.831 81.4266L174.769 77.928ZM183.153 86.184L179.691 88.1865L179.7 88.202L179.709 88.2175L183.153 86.184ZM183.153 110.12L179.709 108.086L179.7 108.102L179.691 108.117L183.153 110.12ZM174.705 118.44L172.752 114.949L172.743 114.954L172.735 114.959L174.705 118.44ZM169.585 105.512L172.623 108.115L172.638 108.098L172.653 108.08L169.585 105.512ZM169.585 90.792L166.518 93.3597L166.533 93.3775L166.548 93.3952L169.585 90.792ZM156.465 90.792L159.503 93.3952L159.518 93.3775L159.533 93.3597L156.465 90.792ZM156.465 105.512L153.398 108.08L153.413 108.098L153.428 108.115L156.465 105.512ZM163.057 117.448C159.447 117.448 156.198 116.607 153.235 114.949L149.328 121.931C153.533 124.283 158.135 125.448 163.057 125.448V117.448ZM153.252 114.959C150.327 113.303 148.017 111.031 146.278 108.086L139.389 112.154C141.832 116.291 145.153 119.566 149.311 121.921L153.252 114.959ZM146.278 108.086C144.58 105.21 143.697 101.932 143.697 98.152H135.697C135.697 103.246 136.906 107.948 139.389 112.154L146.278 108.086ZM143.697 98.152C143.697 94.3715 144.58 91.0944 146.278 88.2175L139.389 84.1505C136.906 88.3563 135.697 93.0578 135.697 98.152H143.697ZM146.278 88.2175C148.012 85.2798 150.313 83.0381 153.22 81.4266L149.343 74.4294C145.168 76.7432 141.836 80.0055 139.389 84.1505L146.278 88.2175ZM153.235 81.4187C156.198 79.7606 159.447 78.92 163.057 78.92V70.92C158.135 70.92 153.533 72.0847 149.328 74.4373L153.235 81.4187ZM163.057 78.92C166.668 78.92 169.888 79.7605 172.799 81.4087L176.74 74.4473C172.569 72.0849 167.98 70.92 163.057 70.92V78.92ZM172.831 81.4266C175.731 83.034 178.002 85.2659 179.691 88.1865L186.616 84.1815C184.209 80.0195 180.891 76.7473 176.708 74.4294L172.831 81.4266ZM179.709 88.2175C181.407 91.0944 182.289 94.3715 182.289 98.152H190.289C190.289 93.0578 189.081 88.3563 186.598 84.1505L179.709 88.2175ZM182.289 98.152C182.289 101.933 181.407 105.21 179.709 108.086L186.598 112.154C189.081 107.948 190.289 103.246 190.289 98.152H182.289ZM179.691 108.117C178.004 111.033 175.711 113.294 172.752 114.949L176.659 121.931C180.868 119.576 184.206 116.289 186.616 112.123L179.691 108.117ZM172.735 114.959C169.818 116.611 166.618 117.448 163.057 117.448V125.448C167.945 125.448 172.511 124.28 176.676 121.921L172.735 114.959ZM163.057 112.2C166.793 112.2 170.179 110.966 172.623 108.115L166.548 102.909C165.92 103.642 164.954 104.2 163.057 104.2V112.2ZM172.653 108.08C174.945 105.341 175.889 101.891 175.889 98.152H167.889C167.889 100.557 167.298 102.014 166.518 102.944L172.653 108.08ZM175.889 98.152C175.889 94.3919 174.955 90.9105 172.623 88.1888L166.548 93.3952C167.288 94.2575 167.889 95.6827 167.889 98.152H175.889ZM172.653 88.2243C170.219 85.3176 166.825 84.04 163.057 84.04V92.04C164.922 92.04 165.88 92.597 166.518 93.3597L172.653 88.2243ZM163.057 84.04C159.269 84.04 155.844 85.3033 153.398 88.2243L159.533 93.3597C160.159 92.6114 161.128 92.04 163.057 92.04V84.04ZM153.428 88.1888C151.096 90.9105 150.161 94.3919 150.161 98.152H158.161C158.161 95.6827 158.763 94.2575 159.503 93.3952L153.428 88.1888ZM150.161 98.152C150.161 101.891 151.106 105.341 153.398 108.08L159.533 102.944C158.753 102.014 158.161 100.557 158.161 98.152H150.161ZM153.428 108.115C155.884 110.98 159.301 112.2 163.057 112.2V104.2C161.097 104.2 160.119 103.628 159.503 102.909L153.428 108.115ZM242.551 121V125H246.551V121H242.551ZM228.343 121L225.005 123.204L226.191 125H228.343V121ZM213.303 98.216L216.641 96.0124L209.303 84.8957V98.216H213.303ZM213.303 121V125H217.303V121H213.303ZM199.095 121H195.095V125H199.095V121ZM199.095 75.688V71.688H195.095V75.688H199.095ZM213.303 75.688L216.658 73.51L215.475 71.688H213.303V75.688ZM228.343 98.856L224.988 101.034L232.343 112.364V98.856H228.343ZM228.343 75.688V71.688H224.343V75.688H228.343ZM242.551 75.688H246.551V71.688H242.551V75.688ZM242.551 117H228.343V125H242.551V117ZM231.681 118.796L216.641 96.0124L209.965 100.42L225.005 123.204L231.681 118.796ZM209.303 98.216V121H217.303V98.216H209.303ZM213.303 117H199.095V125H213.303V117ZM203.095 121V75.688H195.095V121H203.095ZM199.095 79.688H213.303V71.688H199.095V79.688ZM209.948 77.866L224.988 101.034L231.698 96.678L216.658 73.51L209.948 77.866ZM232.343 98.856V75.688H224.343V98.856H232.343ZM228.343 79.688H242.551V71.688H228.343V79.688ZM238.551 75.688V121H246.551V75.688H238.551ZM273.418 75.688H277.418V71.688H273.418V75.688ZM273.418 121V125H277.418V121H273.418ZM259.21 121H255.21V125H259.21V121ZM259.21 75.688V71.688H255.21V75.688H259.21ZM269.418 75.688V121H277.418V75.688H269.418ZM273.418 117H259.21V125H273.418V117ZM263.21 121V75.688H255.21V121H263.21ZM259.21 79.688H273.418V71.688H259.21V79.688ZM317.851 91.176L314.45 93.2814L315.623 95.176H317.851V91.176ZM315.483 89.128L313.694 92.7057L313.755 92.736L313.816 92.7643L315.483 89.128ZM305.435 91.048L308.477 93.645L308.493 93.627L308.508 93.6087L305.435 91.048ZM305.691 106.216L302.793 108.973L302.793 108.973L305.691 106.216ZM321.307 104.872L324.495 107.288L329.359 100.872H321.307V104.872ZM309.979 104.872H305.979V108.872H309.979V104.872ZM309.979 94.824V90.824H305.979V94.824H309.979ZM333.083 94.824H337.083V90.824H333.083V94.824ZM333.083 109.032L336.54 111.045L337.083 110.112V109.032H333.083ZM324.955 117.736L327.23 121.026L327.243 121.017L327.257 121.007L324.955 117.736ZM299.547 118.44L297.572 121.918L297.597 121.933L297.623 121.947L299.547 118.44ZM291.547 110.248L288.005 112.106L288.013 112.122L288.022 112.139L291.547 110.248ZM291.547 86.312L288.022 84.4207L288.013 84.4375L288.005 84.4544L291.547 86.312ZM299.547 78.184L301.49 81.6806L301.506 81.6715L301.522 81.6622L299.547 78.184ZM326.171 79.528L323.73 82.6971L323.739 82.7039L323.748 82.7106L326.171 79.528ZM332.827 91.176V95.176H337.422L336.789 90.6248L332.827 91.176ZM321.252 89.0706C320.254 87.4577 318.838 86.2656 317.15 85.4917L313.816 92.7643C314.176 92.929 314.339 93.1023 314.45 93.2814L321.252 89.0706ZM317.272 85.5503C315.564 84.6965 313.681 84.36 311.771 84.36V92.36C312.762 92.36 313.354 92.5355 313.694 92.7057L317.272 85.5503ZM311.771 84.36C308.078 84.36 304.749 85.6234 302.362 88.4873L308.508 93.6087C309.108 92.8886 310.002 92.36 311.771 92.36V84.36ZM302.393 88.4509C300.1 91.1368 299.195 94.5783 299.195 98.28H307.195C307.195 95.8377 307.783 94.4579 308.477 93.645L302.393 88.4509ZM299.195 98.28C299.195 102.374 300.151 106.196 302.793 108.973L308.589 103.459C307.903 102.738 307.195 101.269 307.195 98.28H299.195ZM302.793 108.973C305.488 111.807 309.299 112.84 313.371 112.84V104.84C310.531 104.84 309.222 104.124 308.589 103.459L302.793 108.973ZM313.371 112.84C317.923 112.84 321.742 110.919 324.495 107.288L318.119 102.456C316.861 104.116 315.389 104.84 313.371 104.84V112.84ZM321.307 100.872H309.979V108.872H321.307V100.872ZM313.979 104.872V94.824H305.979V104.872H313.979ZM309.979 98.824H333.083V90.824H309.979V98.824ZM329.083 94.824V109.032H337.083V94.824H329.083ZM329.626 107.019C327.977 109.852 325.678 112.336 322.653 114.465L327.257 121.007C331.144 118.272 334.264 114.954 336.54 111.045L329.626 107.019ZM322.68 114.446C320.048 116.266 316.524 117.32 311.835 117.32V125.32C317.727 125.32 322.95 123.985 327.23 121.026L322.68 114.446ZM311.835 117.32C307.696 117.32 304.284 116.477 301.471 114.933L297.623 121.947C301.807 124.243 306.588 125.32 311.835 125.32V117.32ZM301.522 114.962C298.721 113.371 296.592 111.19 295.072 108.357L288.022 112.139C290.257 116.303 293.461 119.584 297.572 121.918L301.522 114.962ZM295.089 108.39C293.594 105.538 292.795 102.201 292.795 98.28H284.795C284.795 103.319 285.831 107.961 288.005 112.106L295.089 108.39ZM292.795 98.28C292.795 94.3595 293.594 91.0223 295.089 88.1696L288.005 84.4544C285.831 88.599 284.795 93.2405 284.795 98.28H292.795ZM295.072 88.2033C296.588 85.3772 298.707 83.2265 301.49 81.6806L297.604 74.6874C293.475 76.9815 290.261 80.2494 288.022 84.4207L295.072 88.2033ZM301.522 81.6622C304.281 80.0957 307.63 79.24 311.707 79.24V71.24C306.483 71.24 301.725 72.3469 297.572 74.7058L301.522 81.6622ZM311.707 79.24C316.993 79.24 320.886 80.5063 323.73 82.6971L328.612 76.3589C324.032 72.8323 318.283 71.24 311.707 71.24V79.24ZM323.748 82.7106C326.617 84.895 328.32 87.8085 328.865 91.7272L336.789 90.6248C335.969 84.7302 333.234 79.8783 328.594 76.3454L323.748 82.7106ZM332.827 87.176H317.851V95.176H332.827V87.176Z" fill="#ECEDE7"/>
<circle cx="156" cy="98" r="5" fill="#131218" stroke="#ECEDE7" stroke-width="2"/>
<circle cx="170" cy="98" r="5" fill="#131218" stroke="#ECEDE7" stroke-width="2"/>
</g>
<defs>
<filter id="filter0_d_1_69" x="-3" y="0" width="346" height="140" filterUnits="userSpaceOnUse" color-interpolation-filters="sRGB">
<feFlood flood-opacity="0" result="BackgroundImageFix"/>
<feColorMatrix in="SourceAlpha" type="matrix" values="0 0 0 0 0 0 0 0 0 0 0 0 0 0 0 0 0 0 127 0" result="hardAlpha"/>
<feOffset dy="4"/>
<feGaussianBlur stdDeviation="2"/>
<feComposite in2="hardAlpha" operator="out"/>
<feColorMatrix type="matrix" values="0 0 0 0 0 0 0 0 0 0 0 0 0 0 0 0 0 0 0.25 0"/>
<feBlend mode="normal" in2="BackgroundImageFix" result="effect1_dropShadow_1_69"/>
<feBlend mode="normal" in="SourceGraphic" in2="effect1_dropShadow_1_69" result="shape"/>
</filter>
<clipPath id="clip0_1_69">
<rect width="338" height="132" fill="white" transform="translate(1)"/>
</clipPath>
</defs>
</svg>
