<svg width="336" height="136" viewBox="0 0 336 136" fill="none" xmlns="http://www.w3.org/2000/svg">
<g filter="url(#filter0_d_1_73)">
<g style="mix-blend-mode:difference">
<path d="M36.2 9.688V20.952H18.408V27.224H31.208V37.912H18.408V55H4.2V9.688H36.2ZM62.9005 44.248H76.5965V55H48.6925V9.688H62.9005V44.248ZM110.828 55.448C106.561 55.448 102.636 54.4453 99.0515 52.44C95.5102 50.4347 92.6942 47.6613 90.6035 44.12C88.5128 40.5787 87.4675 36.5893 87.4675 32.152C87.4675 27.7147 88.5128 23.7253 90.6035 20.184C92.6942 16.6427 95.5102 13.8907 99.0515 11.928C102.636 9.92266 106.561 8.92 110.828 8.92C115.094 8.92 118.998 9.92266 122.54 11.928C126.081 13.8907 128.876 16.6427 130.924 20.184C133.014 23.7253 134.06 27.7147 134.06 32.152C134.06 36.5893 133.014 40.5787 130.924 44.12C128.876 47.6613 126.06 50.4347 122.476 52.44C118.934 54.4453 115.052 55.448 110.828 55.448ZM110.828 42.2C113.644 42.2 115.82 41.304 117.356 39.512C118.892 37.6773 119.66 35.224 119.66 32.152C119.66 29.0373 118.892 26.584 117.356 24.792C115.82 22.9573 113.644 22.04 110.828 22.04C107.969 22.04 105.772 22.9573 104.236 24.792C102.7 26.584 101.932 29.0373 101.932 32.152C101.932 35.224 102.7 37.6773 104.236 39.512C105.772 41.304 107.969 42.2 110.828 42.2ZM169.649 55L161.137 38.744H161.073V55H146.865V9.688H167.985C171.654 9.688 174.79 10.3493 177.393 11.672C179.996 12.952 181.937 14.7227 183.217 16.984C184.54 19.2027 185.201 21.72 185.201 24.536C185.201 27.5653 184.348 30.2533 182.641 32.6C180.977 34.9467 178.566 36.632 175.409 37.656L185.265 55H169.649ZM161.073 29.272H166.705C168.07 29.272 169.094 28.9733 169.777 28.376C170.46 27.736 170.801 26.7547 170.801 25.432C170.801 24.2373 170.438 23.2987 169.713 22.616C169.03 21.9333 168.028 21.592 166.705 21.592H161.073V29.272ZM214.188 9.688V55H199.98V9.688H214.188ZM259.901 48.152H244.797L242.557 55H227.645L244.221 9.688H260.605L277.117 55H262.141L259.901 48.152ZM256.445 37.464L252.349 24.856L248.253 37.464H256.445ZM331.481 55H317.273L302.233 32.216V55H288.025V9.688H302.233L317.273 32.856V9.688H331.481V55ZM31.592 121L18.408 101.352V121H4.2V75.688H18.408V94.76L31.4 75.688H47.464L31.848 97.384L48.488 121H31.592ZM82.2725 121.448C78.0058 121.448 74.0805 120.445 70.4965 118.44C66.9552 116.435 64.1392 113.661 62.0485 110.12C59.9578 106.579 58.9125 102.589 58.9125 98.152C58.9125 93.7147 59.9578 89.7253 62.0485 86.184C64.1392 82.6427 66.9552 79.8907 70.4965 77.928C74.0805 75.9227 78.0058 74.92 82.2725 74.92C86.5392 74.92 90.4432 75.9227 93.9845 77.928C97.5258 79.8907 100.321 82.6427 102.369 86.184C104.459 89.7253 105.505 93.7147 105.505 98.152C105.505 102.589 104.459 106.579 102.369 110.12C100.321 113.661 97.5045 116.435 93.9205 118.44C90.3792 120.445 86.4965 121.448 82.2725 121.448ZM82.2725 108.2C85.0885 108.2 87.2645 107.304 88.8005 105.512C90.3365 103.677 91.1045 101.224 91.1045 98.152C91.1045 95.0373 90.3365 92.584 88.8005 90.792C87.2645 88.9573 85.0885 88.04 82.2725 88.04C79.4138 88.04 77.2165 88.9573 75.6805 90.792C74.1445 92.584 73.3765 95.0373 73.3765 98.152C73.3765 101.224 74.1445 103.677 75.6805 105.512C77.2165 107.304 79.4138 108.2 82.2725 108.2ZM161.766 121H147.558L132.518 98.216V121H118.31V75.688H132.518L147.558 98.856V75.688H161.766V121ZM192.633 75.688V121H178.425V75.688H192.633ZM237.066 91.176C236.511 90.28 235.722 89.5973 234.698 89.128C233.674 88.616 232.437 88.36 230.986 88.36C228.255 88.36 226.143 89.256 224.65 91.048C223.157 92.7973 222.41 95.208 222.41 98.28C222.41 101.821 223.242 104.467 224.906 106.216C226.57 107.965 229.13 108.84 232.586 108.84C235.871 108.84 238.517 107.517 240.522 104.872H229.194V94.824H252.298V109.032C250.335 112.403 247.626 115.304 244.17 117.736C240.714 120.125 236.341 121.32 231.05 121.32C226.357 121.32 222.261 120.36 218.762 118.44C215.306 116.477 212.639 113.747 210.762 110.248C208.927 106.749 208.01 102.76 208.01 98.28C208.01 93.8 208.927 89.8107 210.762 86.312C212.639 82.8133 215.306 80.104 218.762 78.184C222.218 76.2213 226.271 75.24 230.922 75.24C236.853 75.24 241.674 76.6693 245.386 79.528C249.141 82.3867 251.359 86.2693 252.042 91.176H237.066Z" fill="white"/>
<circle cx="75.25" cy="98" r="4" fill="white"/>
<circle cx="89.25" cy="98" r="4" fill="white"/>
</g>
<path d="M36.2 9.688H39.2V6.688H36.2V9.688ZM36.2 20.952V23.952H39.2V20.952H36.2ZM18.408 20.952V17.952H15.408V20.952H18.408ZM18.408 27.224H15.408V30.224H18.408V27.224ZM31.208 27.224H34.208V24.224H31.208V27.224ZM31.208 37.912V40.912H34.208V37.912H31.208ZM18.408 37.912V34.912H15.408V37.912H18.408ZM18.408 55V58H21.408V55H18.408ZM4.2 55H1.2V58H4.2V55ZM4.2 9.688V6.688H1.2V9.688H4.2ZM33.2 9.688V20.952H39.2V9.688H33.2ZM36.2 17.952H18.408V23.952H36.2V17.952ZM15.408 20.952V27.224H21.408V20.952H15.408ZM18.408 30.224H31.208V24.224H18.408V30.224ZM28.208 27.224V37.912H34.208V27.224H28.208ZM31.208 34.912H18.408V40.912H31.208V34.912ZM15.408 37.912V55H21.408V37.912H15.408ZM18.408 52H4.2V58H18.408V52ZM7.2 55V9.688H1.2V55H7.2ZM4.2 12.688H36.2V6.688H4.2V12.688ZM62.9005 44.248H59.9005V47.248H62.9005V44.248ZM76.5965 44.248H79.5965V41.248H76.5965V44.248ZM76.5965 55V58H79.5965V55H76.5965ZM48.6925 55H45.6925V58H48.6925V55ZM48.6925 9.688V6.688H45.6925V9.688H48.6925ZM62.9005 9.688H65.9005V6.688H62.9005V9.688ZM62.9005 47.248H76.5965V41.248H62.9005V47.248ZM73.5965 44.248V55H79.5965V44.248H73.5965ZM76.5965 52H48.6925V58H76.5965V52ZM51.6925 55V9.688H45.6925V55H51.6925ZM48.6925 12.688H62.9005V6.688H48.6925V12.688ZM59.9005 9.688V44.248H65.9005V9.688H59.9005ZM99.0515 52.44L97.5733 55.0505L97.5799 55.0543L97.5866 55.058L99.0515 52.44ZM90.6035 44.12L88.0201 45.6451L88.0201 45.6451L90.6035 44.12ZM99.0515 11.928L100.506 14.552L100.516 14.546L99.0515 11.928ZM122.54 11.928L121.061 14.5385L121.073 14.5453L121.085 14.552L122.54 11.928ZM130.924 20.184L128.327 21.6859L128.333 21.6975L128.34 21.7091L130.924 20.184ZM130.924 44.12L128.34 42.5949L128.333 42.6065L128.327 42.6181L130.924 44.12ZM122.476 52.44L121.011 49.822L121.004 49.8257L120.997 49.8295L122.476 52.44ZM117.356 39.512L119.633 41.4644L119.645 41.4512L119.656 41.4378L117.356 39.512ZM117.356 24.792L115.055 26.7178L115.066 26.7312L115.078 26.7444L117.356 24.792ZM104.236 24.792L106.513 26.7444L106.525 26.7312L106.536 26.7178L104.236 24.792ZM104.236 39.512L101.935 41.4378L101.946 41.4512L101.958 41.4644L104.236 39.512ZM110.828 52.448C107.053 52.448 103.635 51.5669 100.516 49.822L97.5866 55.058C101.636 57.3238 106.069 58.448 110.828 58.448V52.448ZM100.53 49.8295C97.4505 48.0858 95.0135 45.6889 93.1869 42.5949L88.0201 45.6451C90.3748 49.6338 93.5699 52.7835 97.5733 55.0505L100.53 49.8295ZM93.1869 42.5949C91.3904 39.5519 90.4675 36.0967 90.4675 32.152H84.4675C84.4675 37.082 85.6352 41.6055 88.0201 45.6451L93.1869 42.5949ZM90.4675 32.152C90.4675 28.2073 91.3904 24.7521 93.1869 21.7091L88.0201 18.6589C85.6352 22.6985 84.4675 27.222 84.4675 32.152H90.4675ZM93.1869 21.7091C95.0103 18.6205 97.4396 16.2513 100.506 14.552L97.5973 9.30404C93.5807 11.5301 90.378 14.6648 88.0201 18.6589L93.1869 21.7091ZM100.516 14.546C103.635 12.8011 107.053 11.92 110.828 11.92V5.92C106.069 5.92 101.636 7.04422 97.5866 9.30995L100.516 14.546ZM110.828 11.92C114.602 11.92 117.993 12.801 121.061 14.5385L124.018 9.31748C120.003 7.04431 115.586 5.92 110.828 5.92V11.92ZM121.085 14.552C124.146 16.2482 126.548 18.6101 128.327 21.6859L133.52 18.6821C131.203 14.6753 128.016 11.5331 123.994 9.30404L121.085 14.552ZM128.34 21.7091C130.137 24.7521 131.06 28.2073 131.06 32.152H137.06C137.06 27.222 135.892 22.6985 133.507 18.6589L128.34 21.7091ZM131.06 32.152C131.06 36.0967 130.137 39.5519 128.34 42.5949L133.507 45.6451C135.892 41.6055 137.06 37.082 137.06 32.152H131.06ZM128.327 42.6181C126.55 45.6904 124.126 48.079 121.011 49.822L123.94 55.058C127.993 52.7903 131.201 49.6322 133.52 45.6219L128.327 42.6181ZM120.997 49.8295C117.924 51.5696 114.554 52.448 110.828 52.448V58.448C115.549 58.448 119.944 57.321 123.954 55.0505L120.997 49.8295ZM110.828 45.2C114.333 45.2 117.416 44.0506 119.633 41.4644L115.078 37.5596C114.223 38.5574 112.954 39.2 110.828 39.2V45.2ZM119.656 41.4378C121.759 38.9251 122.66 35.7242 122.66 32.152H116.66C116.66 34.7238 116.024 36.4295 115.055 37.5862L119.656 41.4378ZM122.66 32.152C122.66 28.5533 121.767 25.3289 119.633 22.8396L115.078 26.7444C116.016 27.8391 116.66 29.5214 116.66 32.152H122.66ZM119.656 22.8662C117.447 20.2275 114.357 19.04 110.828 19.04V25.04C112.93 25.04 114.192 25.6871 115.055 26.7178L119.656 22.8662ZM110.828 19.04C107.272 19.04 104.153 20.2168 101.935 22.8662L106.536 26.7178C107.39 25.6979 108.666 25.04 110.828 25.04V19.04ZM101.958 22.8396C99.8241 25.3289 98.9315 28.5533 98.9315 32.152H104.932C104.932 29.5214 105.575 27.8391 106.513 26.7444L101.958 22.8396ZM98.9315 32.152C98.9315 35.7242 99.8316 38.9251 101.935 41.4378L106.536 37.5862C105.567 36.4295 104.932 34.7238 104.932 32.152H98.9315ZM101.958 41.4644C104.183 44.061 107.296 45.2 110.828 45.2V39.2C108.642 39.2 107.36 38.547 106.513 37.5596L101.958 41.4644ZM169.649 55L166.991 56.3916L167.833 58H169.649V55ZM161.137 38.744L163.795 37.3524L162.953 35.744H161.137V38.744ZM161.073 38.744V35.744H158.073V38.744H161.073ZM161.073 55V58H164.073V55H161.073ZM146.865 55H143.865V58H146.865V55ZM146.865 9.688V6.688H143.865V9.688H146.865ZM177.393 11.672L176.034 14.3465L176.051 14.3554L176.069 14.364L177.393 11.672ZM183.217 16.984L180.606 18.4618L180.623 18.4912L180.64 18.5202L183.217 16.984ZM182.641 32.6L180.215 30.8355L180.204 30.85L180.194 30.8647L182.641 32.6ZM175.409 37.656L174.483 34.8023L170.982 35.9379L172.801 39.1382L175.409 37.656ZM185.265 55V58H190.42L187.873 53.5178L185.265 55ZM161.073 29.272H158.073V32.272H161.073V29.272ZM169.777 28.376L171.753 30.6337L171.791 30.5998L171.829 30.5646L169.777 28.376ZM169.713 22.616L167.592 24.7373L167.624 24.7695L167.657 24.8006L169.713 22.616ZM161.073 21.592V18.592H158.073V21.592H161.073ZM172.307 53.6084L163.795 37.3524L158.479 40.1356L166.991 56.3916L172.307 53.6084ZM161.137 35.744H161.073V41.744H161.137V35.744ZM158.073 38.744V55H164.073V38.744H158.073ZM161.073 52H146.865V58H161.073V52ZM149.865 55V9.688H143.865V55H149.865ZM146.865 12.688H167.985V6.688H146.865V12.688ZM167.985 12.688C171.3 12.688 173.947 13.2857 176.034 14.3465L178.752 8.99754C175.634 7.41298 172.008 6.688 167.985 6.688V12.688ZM176.069 14.364C178.196 15.41 179.657 16.7854 180.606 18.4618L185.828 15.5062C184.217 12.6599 181.795 10.494 178.717 8.97995L176.069 14.364ZM180.64 18.5202C181.661 20.2329 182.201 22.2105 182.201 24.536H188.201C188.201 21.2295 187.418 18.1725 185.794 15.4478L180.64 18.5202ZM182.201 24.536C182.201 26.9611 181.531 29.0251 180.215 30.8355L185.067 34.3645C187.164 31.4815 188.201 28.1696 188.201 24.536H182.201ZM180.194 30.8647C178.959 32.606 177.125 33.9457 174.483 34.8023L176.335 40.5097C180.008 39.3183 182.995 37.2873 185.088 34.3353L180.194 30.8647ZM172.801 39.1382L182.657 56.4822L187.873 53.5178L178.017 36.1738L172.801 39.1382ZM185.265 52H169.649V58H185.265V52ZM161.073 32.272H166.705V26.272H161.073V32.272ZM166.705 32.272C168.442 32.272 170.304 31.9008 171.753 30.6337L167.801 26.1183C167.884 26.0459 167.699 26.272 166.705 26.272V32.272ZM171.829 30.5646C173.332 29.1557 173.801 27.2336 173.801 25.432H167.801C167.801 25.8451 167.747 26.0737 167.712 26.1744C167.682 26.2582 167.675 26.2346 167.725 26.1874L171.829 30.5646ZM173.801 25.432C173.801 23.5884 173.215 21.7926 171.769 20.4314L167.657 24.8006C167.689 24.831 167.709 24.8581 167.731 24.9132C167.756 24.9797 167.801 25.1367 167.801 25.432H173.801ZM171.834 20.4947C170.407 19.0672 168.522 18.592 166.705 18.592V24.592C167.116 24.592 167.359 24.6459 167.482 24.6879C167.592 24.7252 167.606 24.7513 167.592 24.7373L171.834 20.4947ZM166.705 18.592H161.073V24.592H166.705V18.592ZM158.073 21.592V29.272H164.073V21.592H158.073ZM214.188 9.688H217.188V6.688H214.188V9.688ZM214.188 55V58H217.188V55H214.188ZM199.98 55H196.98V58H199.98V55ZM199.98 9.688V6.688H196.98V9.688H199.98ZM211.188 9.688V55H217.188V9.688H211.188ZM214.188 52H199.98V58H214.188V52ZM202.98 55V9.688H196.98V55H202.98ZM199.98 12.688H214.188V6.688H199.98V12.688ZM259.901 48.152L262.752 47.2193L262.076 45.152H259.901V48.152ZM244.797 48.152V45.152H242.622L241.946 47.2193L244.797 48.152ZM242.557 55V58H244.732L245.408 55.9327L242.557 55ZM227.645 55L224.828 53.9693L223.353 58H227.645V55ZM244.221 9.688V6.688H242.124L241.404 8.65734L244.221 9.688ZM260.605 9.688L263.424 8.66085L262.705 6.688H260.605V9.688ZM277.117 55V58H281.403L279.936 53.9729L277.117 55ZM262.141 55L259.29 55.9327L259.966 58H262.141V55ZM256.445 37.464V40.464H260.574L259.298 36.5371L256.445 37.464ZM252.349 24.856L255.202 23.9291L252.349 15.1465L249.496 23.9291L252.349 24.856ZM248.253 37.464L245.4 36.5371L244.124 40.464H248.253V37.464ZM259.901 45.152H244.797V51.152H259.901V45.152ZM241.946 47.2193L239.706 54.0673L245.408 55.9327L247.648 49.0847L241.946 47.2193ZM242.557 52H227.645V58H242.557V52ZM230.462 56.0307L247.038 10.7187L241.404 8.65734L224.828 53.9693L230.462 56.0307ZM244.221 12.688H260.605V6.688H244.221V12.688ZM257.786 10.7151L274.298 56.0271L279.936 53.9729L263.424 8.66085L257.786 10.7151ZM277.117 52H262.141V58H277.117V52ZM264.992 54.0673L262.752 47.2193L257.05 49.0847L259.29 55.9327L264.992 54.0673ZM259.298 36.5371L255.202 23.9291L249.496 25.7829L253.592 38.3909L259.298 36.5371ZM249.496 23.9291L245.4 36.5371L251.106 38.3909L255.202 25.7829L249.496 23.9291ZM248.253 40.464H256.445V34.464H248.253V40.464ZM331.481 55V58H334.481V55H331.481ZM317.273 55L314.769 56.6527L315.659 58H317.273V55ZM302.233 32.216L304.737 30.5633L299.233 22.2258V32.216H302.233ZM302.233 55V58H305.233V55H302.233ZM288.025 55H285.025V58H288.025V55ZM288.025 9.688V6.688H285.025V9.688H288.025ZM302.233 9.688L304.749 8.0545L303.862 6.688H302.233V9.688ZM317.273 32.856L314.757 34.4895L320.273 42.9869V32.856H317.273ZM317.273 9.688V6.688H314.273V9.688H317.273ZM331.481 9.688H334.481V6.688H331.481V9.688ZM331.481 52H317.273V58H331.481V52ZM319.777 53.3473L304.737 30.5633L299.729 33.8687L314.769 56.6527L319.777 53.3473ZM299.233 32.216V55H305.233V32.216H299.233ZM302.233 52H288.025V58H302.233V52ZM291.025 55V9.688H285.025V55H291.025ZM288.025 12.688H302.233V6.688H288.025V12.688ZM299.717 11.3215L314.757 34.4895L319.789 31.2225L304.749 8.0545L299.717 11.3215ZM320.273 32.856V9.688H314.273V32.856H320.273ZM317.273 12.688H331.481V6.688H317.273V12.688ZM328.481 9.688V55H334.481V9.688H328.481ZM31.592 121L29.1009 122.672L29.9922 124H31.592V121ZM18.408 101.352L20.8991 99.6804L15.408 91.497V101.352H18.408ZM18.408 121V124H21.408V121H18.408ZM4.2 121H1.2V124H4.2V121ZM4.2 75.688V72.688H1.2V75.688H4.2ZM18.408 75.688H21.408V72.688H18.408V75.688ZM18.408 94.76H15.408V104.493L20.8874 96.449L18.408 94.76ZM31.4 75.688V72.688H29.8137L28.9206 73.999L31.4 75.688ZM47.464 75.688L49.8989 77.4405L53.3196 72.688H47.464V75.688ZM31.848 97.384L29.4131 95.6315L28.165 97.3655L29.3956 99.112L31.848 97.384ZM48.488 121V124H54.2717L50.9404 119.272L48.488 121ZM34.0831 119.328L20.8991 99.6804L15.9169 103.024L29.1009 122.672L34.0831 119.328ZM15.408 101.352V121H21.408V101.352H15.408ZM18.408 118H4.2V124H18.408V118ZM7.2 121V75.688H1.2V121H7.2ZM4.2 78.688H18.408V72.688H4.2V78.688ZM15.408 75.688V94.76H21.408V75.688H15.408ZM20.8874 96.449L33.8794 77.377L28.9206 73.999L15.9286 93.071L20.8874 96.449ZM31.4 78.688H47.464V72.688H31.4V78.688ZM45.0291 73.9355L29.4131 95.6315L34.2829 99.1365L49.8989 77.4405L45.0291 73.9355ZM29.3956 99.112L46.0356 122.728L50.9404 119.272L34.3004 95.656L29.3956 99.112ZM48.488 118H31.592V124H48.488V118ZM70.4965 118.44L69.0183 121.051L69.0249 121.054L69.0316 121.058L70.4965 118.44ZM62.0485 110.12L59.4651 111.645L59.4651 111.645L62.0485 110.12ZM70.4965 77.928L71.9508 80.552L71.9614 80.546L70.4965 77.928ZM93.9845 77.928L92.5063 80.5385L92.5182 80.5453L92.5303 80.552L93.9845 77.928ZM102.369 86.184L99.7715 87.6859L99.7783 87.6975L99.7851 87.7091L102.369 86.184ZM102.369 110.12L99.7851 108.595L99.7783 108.606L99.7715 108.618L102.369 110.12ZM93.9205 118.44L92.4556 115.822L92.4489 115.826L92.4423 115.829L93.9205 118.44ZM88.8005 105.512L91.0783 107.464L91.0896 107.451L91.1008 107.438L88.8005 105.512ZM88.8005 90.792L86.5002 92.7178L86.5114 92.7312L86.5227 92.7444L88.8005 90.792ZM75.6805 90.792L77.9583 92.7444L77.9696 92.7312L77.9808 92.7178L75.6805 90.792ZM75.6805 105.512L73.3802 107.438L73.3914 107.451L73.4027 107.464L75.6805 105.512ZM82.2725 118.448C78.498 118.448 75.08 117.567 71.9614 115.822L69.0316 121.058C73.081 123.324 77.5137 124.448 82.2725 124.448V118.448ZM71.9747 115.829C68.8955 114.086 66.4585 111.689 64.6319 108.595L59.4651 111.645C61.8198 115.634 65.0149 118.784 69.0183 121.051L71.9747 115.829ZM64.6319 108.595C62.8354 105.552 61.9125 102.097 61.9125 98.152H55.9125C55.9125 103.082 57.0802 107.605 59.4651 111.645L64.6319 108.595ZM61.9125 98.152C61.9125 94.2073 62.8354 90.7521 64.6319 87.7091L59.4651 84.6589C57.0802 88.6985 55.9125 93.222 55.9125 98.152H61.9125ZM64.6319 87.7091C66.4553 84.6205 68.8846 82.2513 71.9507 80.552L69.0423 75.304C65.0257 77.5301 61.823 80.6648 59.4651 84.6589L64.6319 87.7091ZM71.9614 80.546C75.08 78.8011 78.498 77.92 82.2725 77.92V71.92C77.5137 71.92 73.081 73.0442 69.0316 75.3099L71.9614 80.546ZM82.2725 77.92C86.0471 77.92 89.4379 78.801 92.5063 80.5385L95.4627 75.3175C91.4484 73.0443 87.0312 71.92 82.2725 71.92V77.92ZM92.5303 80.552C95.5908 82.2482 97.9927 84.6101 99.7715 87.6859L104.965 84.6821C102.648 80.6753 99.4608 77.5331 95.4387 75.304L92.5303 80.552ZM99.7851 87.7091C101.582 90.7521 102.505 94.2073 102.505 98.152H108.505C108.505 93.222 107.337 88.6985 104.952 84.6589L99.7851 87.7091ZM102.505 98.152C102.505 102.097 101.582 105.552 99.7851 108.595L104.952 111.645C107.337 107.605 108.505 103.082 108.505 98.152H102.505ZM99.7715 108.618C97.9948 111.69 95.5707 114.079 92.4556 115.822L95.3854 121.058C99.4383 118.79 102.646 115.632 104.965 111.622L99.7715 108.618ZM92.4423 115.829C89.3693 117.57 85.9989 118.448 82.2725 118.448V124.448C86.9941 124.448 91.3891 123.321 95.3987 121.051L92.4423 115.829ZM82.2725 111.2C85.7783 111.2 88.8615 110.051 91.0783 107.464L86.5227 103.56C85.6675 104.557 84.3987 105.2 82.2725 105.2V111.2ZM91.1008 107.438C93.2044 104.925 94.1045 101.724 94.1045 98.152H88.1045C88.1045 100.724 87.4686 102.43 86.5002 103.586L91.1008 107.438ZM94.1045 98.152C94.1045 94.5533 93.2119 91.3289 91.0783 88.8396L86.5227 92.7444C87.4611 93.8391 88.1045 95.5214 88.1045 98.152H94.1045ZM91.1008 88.8662C88.8917 86.2275 85.8023 85.04 82.2725 85.04V91.04C84.3748 91.04 85.6373 91.6871 86.5002 92.7178L91.1008 88.8662ZM82.2725 85.04C78.7167 85.04 75.5983 86.2168 73.3802 88.8662L77.9808 92.7178C78.8347 91.6979 80.1109 91.04 82.2725 91.04V85.04ZM73.4027 88.8396C71.2691 91.3289 70.3765 94.5533 70.3765 98.152H76.3765C76.3765 95.5214 77.0199 93.8391 77.9583 92.7444L73.4027 88.8396ZM70.3765 98.152C70.3765 101.724 71.2766 104.925 73.3802 107.438L77.9808 103.586C77.0124 102.43 76.3765 100.724 76.3765 98.152H70.3765ZM73.4027 107.464C75.6284 110.061 78.7405 111.2 82.2725 111.2V105.2C80.0872 105.2 78.8046 104.547 77.9583 103.56L73.4027 107.464ZM161.766 121V124H164.766V121H161.766ZM147.558 121L145.054 122.653L145.944 124H147.558V121ZM132.518 98.216L135.022 96.5633L129.518 88.2258V98.216H132.518ZM132.518 121V124H135.518V121H132.518ZM118.31 121H115.31V124H118.31V121ZM118.31 75.688V72.688H115.31V75.688H118.31ZM132.518 75.688L135.034 74.0545L134.147 72.688H132.518V75.688ZM147.558 98.856L145.042 100.489L150.558 108.987V98.856H147.558ZM147.558 75.688V72.688H144.558V75.688H147.558ZM161.766 75.688H164.766V72.688H161.766V75.688ZM161.766 118H147.558V124H161.766V118ZM150.062 119.347L135.022 96.5633L130.014 99.8687L145.054 122.653L150.062 119.347ZM129.518 98.216V121H135.518V98.216H129.518ZM132.518 118H118.31V124H132.518V118ZM121.31 121V75.688H115.31V121H121.31ZM118.31 78.688H132.518V72.688H118.31V78.688ZM130.002 77.3215L145.042 100.489L150.074 97.2225L135.034 74.0545L130.002 77.3215ZM150.558 98.856V75.688H144.558V98.856H150.558ZM147.558 78.688H161.766V72.688H147.558V78.688ZM158.766 75.688V121H164.766V75.688H158.766ZM192.633 75.688H195.633V72.688H192.633V75.688ZM192.633 121V124H195.633V121H192.633ZM178.425 121H175.425V124H178.425V121ZM178.425 75.688V72.688H175.425V75.688H178.425ZM189.633 75.688V121H195.633V75.688H189.633ZM192.633 118H178.425V124H192.633V118ZM181.425 121V75.688H175.425V121H181.425ZM178.425 78.688H192.633V72.688H178.425V78.688ZM237.066 91.176L234.515 92.7551L235.395 94.176H237.066V91.176ZM234.698 89.128L233.356 91.8113L233.402 91.834L233.448 91.8552L234.698 89.128ZM224.65 91.048L226.932 92.9958L226.943 92.9822L226.955 92.9686L224.65 91.048ZM224.906 106.216L222.732 108.284L222.732 108.284L224.906 106.216ZM240.522 104.872L242.913 106.684L246.561 101.872H240.522V104.872ZM229.194 104.872H226.194V107.872H229.194V104.872ZM229.194 94.824V91.824H226.194V94.824H229.194ZM252.298 94.824H255.298V91.824H252.298V94.824ZM252.298 109.032L254.891 110.542L255.298 109.842V109.032H252.298ZM244.17 117.736L245.876 120.204L245.886 120.197L245.896 120.189L244.17 117.736ZM218.762 118.44L217.281 121.049L217.3 121.059L217.319 121.07L218.762 118.44ZM210.762 110.248L208.105 111.641L208.112 111.654L208.119 111.666L210.762 110.248ZM210.762 86.312L208.119 84.8935L208.112 84.9061L208.105 84.9188L210.762 86.312ZM218.762 78.184L220.219 80.8065L220.231 80.7996L220.243 80.7927L218.762 78.184ZM245.386 79.528L243.556 81.9049L243.562 81.9099L243.569 81.9149L245.386 79.528ZM252.042 91.176V94.176H255.488L255.013 90.7626L252.042 91.176ZM239.617 89.5969C238.729 88.1633 237.47 87.0986 235.948 86.4008L233.448 91.8552C233.974 92.0961 234.293 92.3967 234.515 92.7551L239.617 89.5969ZM236.04 86.4447C234.503 85.6763 232.781 85.36 230.986 85.36V91.36C232.092 91.36 232.845 91.5557 233.356 91.8113L236.04 86.4447ZM230.986 85.36C227.534 85.36 224.509 86.5315 222.345 89.1274L226.955 92.9686C227.778 91.9805 228.977 91.36 230.986 91.36V85.36ZM222.368 89.1002C220.275 91.5519 219.41 94.7358 219.41 98.28H225.41C225.41 95.6802 226.038 94.0428 226.932 92.9958L222.368 89.1002ZM219.41 98.28C219.41 102.236 220.335 105.763 222.732 108.284L227.08 104.148C226.149 103.17 225.41 101.407 225.41 98.28H219.41ZM222.732 108.284C225.17 110.846 228.668 111.84 232.586 111.84V105.84C229.592 105.84 227.97 105.084 227.08 104.148L222.732 108.284ZM232.586 111.84C236.822 111.84 240.347 110.069 242.913 106.684L238.131 103.06C236.686 104.966 234.921 105.84 232.586 105.84V111.84ZM240.522 101.872H229.194V107.872H240.522V101.872ZM232.194 104.872V94.824H226.194V104.872H232.194ZM229.194 97.824H252.298V91.824H229.194V97.824ZM249.298 94.824V109.032H255.298V94.824H249.298ZM249.705 107.522C247.978 110.489 245.576 113.078 242.444 115.283L245.896 120.189C249.676 117.53 252.693 114.316 254.891 110.542L249.705 107.522ZM242.464 115.268C239.626 117.231 235.89 118.32 231.05 118.32V124.32C236.792 124.32 241.802 123.02 245.876 120.204L242.464 115.268ZM231.05 118.32C226.772 118.32 223.19 117.448 220.205 115.81L217.319 121.07C221.332 123.272 225.941 124.32 231.05 124.32V118.32ZM220.243 115.831C217.279 114.148 215.015 111.829 213.405 108.83L208.119 111.666C210.264 115.664 213.333 118.807 217.281 121.049L220.243 115.831ZM213.419 108.855C211.838 105.841 211.01 102.34 211.01 98.28H205.01C205.01 103.18 206.016 107.658 208.105 111.641L213.419 108.855ZM211.01 98.28C211.01 94.2196 211.838 90.7194 213.419 87.7052L208.105 84.9188C206.016 88.9019 205.01 93.3804 205.01 98.28H211.01ZM213.405 87.7305C215.012 84.7362 217.268 82.4459 220.219 80.8065L217.305 75.5615C213.344 77.7621 210.267 80.8904 208.119 84.8935L213.405 87.7305ZM220.243 80.7927C223.176 79.1271 226.702 78.24 230.922 78.24V72.24C225.841 72.24 221.26 73.3155 217.281 75.5753L220.243 80.7927ZM230.922 78.24C236.369 78.24 240.494 79.5471 243.556 81.9049L247.216 77.1511C242.854 73.7916 237.336 72.24 230.922 72.24V78.24ZM243.569 81.9149C246.659 84.2679 248.491 87.4237 249.071 91.5894L255.013 90.7626C254.228 85.1149 251.622 80.5054 247.203 77.1411L243.569 81.9149ZM252.042 88.176H237.066V94.176H252.042V88.176Z" fill="#ECEDE7"/>
<circle cx="75.25" cy="98" r="5" fill="#131218" stroke="#ECEDE7" stroke-width="2"/>
<circle cx="89.25" cy="98" r="5" fill="#131218" stroke="#ECEDE7" stroke-width="2"/>
</g>
<defs>
<filter id="filter0_d_1_73" x="-3" y="0" width="342" height="144" filterUnits="userSpaceOnUse" color-interpolation-filters="sRGB">
<feFlood flood-opacity="0" result="BackgroundImageFix"/>
<feColorMatrix in="SourceAlpha" type="matrix" values="0 0 0 0 0 0 0 0 0 0 0 0 0 0 0 0 0 0 127 0" result="hardAlpha"/>
<feOffset dy="4"/>
<feGaussianBlur stdDeviation="2"/>
<feComposite in2="hardAlpha" operator="out"/>
<feColorMatrix type="matrix" values="0 0 0 0 0 0 0 0 0 0 0 0 0 0 0 0 0 0 0.25 0"/>
<feBlend mode="normal" in2="BackgroundImageFix" result="effect1_dropShadow_1_73"/>
<feBlend mode="normal" in="SourceGraphic" in2="effect1_dropShadow_1_73" result="shape"/>
</filter>
</defs>
</svg>
