<?xml version="1.0" standalone="no"?>
<!DOCTYPE svg PUBLIC "-//W3C//DTD SVG 20010904//EN"
 "http://www.w3.org/TR/2001/REC-SVG-20010904/DTD/svg10.dtd">
<svg version="1.0" xmlns="http://www.w3.org/2000/svg"
 width="700.000000pt" height="700.000000pt" viewBox="0 0 700.000000 700.000000"
 preserveAspectRatio="xMidYMid meet">
<metadata>
Created by potrace 1.11, written by Peter Selinger 2001-2013
</metadata>
<g transform="translate(0.000000,700.000000) scale(0.100000,-0.100000)"
fill="#000000" stroke="none">
<path d="M6385 5321 c-78 -35 -105 -80 -200 -337 -91 -244 -96 -327 -24 -389
48 -40 114 -30 165 27 12 12 64 106 115 208 51 102 106 211 123 243 54 106 42
194 -33 244 -41 28 -91 29 -146 4z"/>
<path d="M1493 4919 c-38 -11 -87 -58 -113 -109 -11 -21 -35 -98 -54 -172 -61
-234 -125 -416 -238 -673 -192 -438 -359 -871 -487 -1268 -98 -304 -201 -710
-201 -795 0 -138 89 -230 233 -240 60 -4 73 -2 131 27 74 36 137 101 197 201
42 71 111 233 123 288 4 17 12 32 17 32 5 0 30 -28 56 -62 116 -154 199 -210
310 -209 150 0 292 88 402 249 33 48 88 122 122 165 l62 77 17 -37 c24 -53 85
-107 153 -139 53 -24 68 -26 146 -22 100 5 178 36 289 115 80 57 231 208 292
292 69 94 148 243 183 345 29 84 32 101 32 222 0 130 0 130 -37 205 -108 218
-312 270 -563 142 -287 -147 -558 -519 -582 -800 l-6 -73 -42 0 c-62 0 -107
-51 -196 -223 -72 -139 -155 -248 -199 -262 -48 -15 -87 41 -115 165 -22 97
-42 148 -74 184 -29 32 -94 65 -128 66 -29 0 -29 2 2 51 40 62 161 184 270
272 173 138 268 274 269 382 2 130 -127 191 -249 120 -142 -84 -322 -343 -495
-717 -30 -65 -56 -112 -58 -104 -5 21 45 256 83 391 127 454 351 938 639 1377
91 139 120 210 121 293 0 56 -5 78 -24 111 -29 51 -100 106 -164 128 -53 18
-77 19 -124 5z"/>
<path d="M6003 4514 c-64 -22 -156 -142 -209 -272 -41 -103 -184 -665 -184
-726 0 -13 -5 -16 -20 -11 -48 15 -148 -32 -259 -123 l-40 -33 8 28 c5 15 31
84 59 153 126 316 155 454 113 546 -26 58 -93 111 -169 134 -77 24 -104 25
-147 4 -33 -15 -132 -112 -171 -167 l-19 -28 -32 45 c-59 83 -149 104 -236 53
-57 -34 -79 -65 -113 -158 -97 -270 -326 -601 -614 -889 -157 -158 -226 -206
-335 -235 -79 -22 -109 -15 -124 26 -19 55 -15 69 20 69 48 0 147 28 228 66
170 78 357 236 419 352 67 126 92 267 63 354 -42 127 -261 189 -450 128 -320
-103 -611 -561 -571 -900 52 -447 462 -482 922 -78 l67 58 6 -57 c11 -94 35
-136 91 -163 82 -40 214 -28 262 23 11 12 83 148 160 302 78 156 142 273 145
265 3 -8 8 -33 11 -55 9 -62 56 -145 104 -182 56 -42 110 -56 200 -51 63 4 87
12 165 52 51 25 128 73 172 106 l80 60 17 -53 c39 -114 116 -137 247 -71 100
50 115 75 104 174 -15 148 -9 227 26 330 38 111 156 344 241 474 113 174 124
218 80 307 -55 107 -212 178 -317 143z"/>
</g>
</svg>
