<svg xmlns="http://www.w3.org/2000/svg" fill-rule="evenodd" viewBox="0 0 2048 2048" xmlns:xlink="http://www.w3.org/1999/xlink" clip-rule="evenodd"><g><use width="2030" height="2030" x="9" y="9" xlink:href="#_Image1"/><circle cx="1024" cy="1024" r="1024" fill="#f2f2f2" stroke="#f2f2f2" stroke-width="1.09" transform="matrix(.919 0 0 .919 82.852 82.852)"/></g><path fill="#0d0d0d" stroke="#1a1a1a" stroke-width=".9933000000000001" d="M395.93 666.27s13.66-72.24 73.68-55.7c0 0 108.2 28.38 29.12 142.68 0 0-186.96 260.75-224.25 558 0 0 121.2-306.42 213.85-273.85 0 0 74.12 26.04-23.28 128.1 0 0-94.48 67.63-119.05 120.97 0 0 59.5-10.1 67.37 67.4 0 0 10.46 52.2 30.24 55.4 0 0 30.2.45 68.84-82.67 0 0 26.5-63.66 52.42-62.1 0 0 8.47.33 17.2 1 0 0-16.42-74.76 83.64-188.62 0 0 106.57-124.6 205.87-75.9 0 0 127.72 71.92-4.66 267.2 0 0-124.6 176.7-227.02 113.82 0 0-28.75-14.97-38.33-47.93 0 0-28.8 29.2-67.62 89.6 0 0-43.13 56.54-106.38 56.54-63.26 0-92.5-83.85-107.82-83.37 0 0-41.7 168.67-132.27 164.36 0 0-86.73.47-65.17-98.25 0 0 44.45-244.13 226.96-640.75 0 0 37.92-107.57 46.67-155.93z"/><path fill="#0d0d0d" stroke="#0d0d0d" stroke-width=".9933000000000001" d="M942.03 1165.8s.6-109.02 103.65-200.1c0 0 58.5-56.7 133.16-42.12 74.66 14.6 77.2 70.27 45.9 137.2-31.3 66.96-149.68 136.3-203.24 127.3 0 0-.83 32.18 14.06 35.67 14.9 3.48 57.4-5.46 101.98-45.72 44.57-40.26 174.55-179.23 210.5-302.34 0 0 5.05-18 26.98-31.4 21.95-13.4 40.37-8.54 54.4 1.9 14.02 10.42 20.44 25.87 21.94 30.62 0 0 44.4-66.92 72.1-64.77 27.67 2.16 102.07 18 76.56 106.4-25.53 88.43-52.14 126.53-53.92 154.93 0 0 61.82-62.9 94.9-47.08 0 0 39.7-201.54 67.1-243.32 27.4-41.8 37.56-60 69.95-56.9 32.4 3.08 70.34 22.45 77.08 67.83 0 0 6.46 13.3-39.78 76.8 0 0-76.7 123.9-73.18 181.5 0 0 .27 27.64 4.84 40.3 4.57 12.67 9.14 44.17-58.15 62 0 0-38.8 11.88-46.86-50.23 0 0-87.43 75.9-135.75 67.57 0 0-76.97 7.14-79.04-98.23 0 0-77.16 150.66-88.37 175.38-11.22 24.74-96.95 28.85-101.26-19.46 0 0-3.76-33.06-4.9-37.28 0 0-124.93 130.45-224.63 97.46 0 0-66.82-19.62-66-123.9zM1824.1 557.44s15.16-76.4 74.7-70.2c0 0 62.1 17.28 9.48 95.8 0 0-49.18 94.02-53.5 106.4 0 0-18.97 27.88-44 17.82 0 0-20.12-5.75-22.7-39.97 0 0-4.74-12.38 36.02-109.86z"/></svg>